%TF.GenerationSoftware,KiCad,Pcbnew,8.0.6*%
%TF.CreationDate,2026-05-29T23:40:40-07:00*%
%TF.ProjectId,TopPCB,546f7050-4342-42e6-9b69-6361645f7063,rev?*%
%TF.SameCoordinates,Original*%
%TF.FileFunction,Legend,Top*%
%TF.FilePolarity,Positive*%
%FSLAX46Y46*%
G04 Gerber Fmt 4.6, Leading zero omitted, Abs format (unit mm)*
G04 Created by KiCad (PCBNEW 8.0.6) date 2026-05-29 23:40:40*
%MOMM*%
%LPD*%
G01*
G04 APERTURE LIST*
%ADD10C,0.150000*%
%ADD11C,0.120000*%
%ADD12R,1.700000X1.700000*%
%ADD13O,1.700000X1.700000*%
%ADD14C,2.000000*%
G04 APERTURE END LIST*
D10*
X122884819Y-99123333D02*
X122408628Y-99456666D01*
X122884819Y-99694761D02*
X121884819Y-99694761D01*
X121884819Y-99694761D02*
X121884819Y-99313809D01*
X121884819Y-99313809D02*
X121932438Y-99218571D01*
X121932438Y-99218571D02*
X121980057Y-99170952D01*
X121980057Y-99170952D02*
X122075295Y-99123333D01*
X122075295Y-99123333D02*
X122218152Y-99123333D01*
X122218152Y-99123333D02*
X122313390Y-99170952D01*
X122313390Y-99170952D02*
X122361009Y-99218571D01*
X122361009Y-99218571D02*
X122408628Y-99313809D01*
X122408628Y-99313809D02*
X122408628Y-99694761D01*
X122361009Y-98694761D02*
X122361009Y-98361428D01*
X122884819Y-98218571D02*
X122884819Y-98694761D01*
X122884819Y-98694761D02*
X121884819Y-98694761D01*
X121884819Y-98694761D02*
X121884819Y-98218571D01*
X122361009Y-97456666D02*
X122361009Y-97789999D01*
X122884819Y-97789999D02*
X121884819Y-97789999D01*
X121884819Y-97789999D02*
X121884819Y-97313809D01*
X121884819Y-96789999D02*
X122122914Y-96789999D01*
X122027676Y-97028094D02*
X122122914Y-96789999D01*
X122122914Y-96789999D02*
X122027676Y-96551904D01*
X122313390Y-96932856D02*
X122122914Y-96789999D01*
X122122914Y-96789999D02*
X122313390Y-96647142D01*
X121884819Y-96028094D02*
X122122914Y-96028094D01*
X122027676Y-96266189D02*
X122122914Y-96028094D01*
X122122914Y-96028094D02*
X122027676Y-95789999D01*
X122313390Y-96170951D02*
X122122914Y-96028094D01*
X122122914Y-96028094D02*
X122313390Y-95885237D01*
X163236666Y-120274819D02*
X162903333Y-119798628D01*
X162665238Y-120274819D02*
X162665238Y-119274819D01*
X162665238Y-119274819D02*
X163046190Y-119274819D01*
X163046190Y-119274819D02*
X163141428Y-119322438D01*
X163141428Y-119322438D02*
X163189047Y-119370057D01*
X163189047Y-119370057D02*
X163236666Y-119465295D01*
X163236666Y-119465295D02*
X163236666Y-119608152D01*
X163236666Y-119608152D02*
X163189047Y-119703390D01*
X163189047Y-119703390D02*
X163141428Y-119751009D01*
X163141428Y-119751009D02*
X163046190Y-119798628D01*
X163046190Y-119798628D02*
X162665238Y-119798628D01*
X163665238Y-119751009D02*
X163998571Y-119751009D01*
X164141428Y-120274819D02*
X163665238Y-120274819D01*
X163665238Y-120274819D02*
X163665238Y-119274819D01*
X163665238Y-119274819D02*
X164141428Y-119274819D01*
X164903333Y-119751009D02*
X164570000Y-119751009D01*
X164570000Y-120274819D02*
X164570000Y-119274819D01*
X164570000Y-119274819D02*
X165046190Y-119274819D01*
X165570000Y-119274819D02*
X165570000Y-119512914D01*
X165331905Y-119417676D02*
X165570000Y-119512914D01*
X165570000Y-119512914D02*
X165808095Y-119417676D01*
X165427143Y-119703390D02*
X165570000Y-119512914D01*
X165570000Y-119512914D02*
X165712857Y-119703390D01*
X166331905Y-119274819D02*
X166331905Y-119512914D01*
X166093810Y-119417676D02*
X166331905Y-119512914D01*
X166331905Y-119512914D02*
X166570000Y-119417676D01*
X166189048Y-119703390D02*
X166331905Y-119512914D01*
X166331905Y-119512914D02*
X166474762Y-119703390D01*
X178476666Y-120274819D02*
X178143333Y-119798628D01*
X177905238Y-120274819D02*
X177905238Y-119274819D01*
X177905238Y-119274819D02*
X178286190Y-119274819D01*
X178286190Y-119274819D02*
X178381428Y-119322438D01*
X178381428Y-119322438D02*
X178429047Y-119370057D01*
X178429047Y-119370057D02*
X178476666Y-119465295D01*
X178476666Y-119465295D02*
X178476666Y-119608152D01*
X178476666Y-119608152D02*
X178429047Y-119703390D01*
X178429047Y-119703390D02*
X178381428Y-119751009D01*
X178381428Y-119751009D02*
X178286190Y-119798628D01*
X178286190Y-119798628D02*
X177905238Y-119798628D01*
X178905238Y-119751009D02*
X179238571Y-119751009D01*
X179381428Y-120274819D02*
X178905238Y-120274819D01*
X178905238Y-120274819D02*
X178905238Y-119274819D01*
X178905238Y-119274819D02*
X179381428Y-119274819D01*
X180143333Y-119751009D02*
X179810000Y-119751009D01*
X179810000Y-120274819D02*
X179810000Y-119274819D01*
X179810000Y-119274819D02*
X180286190Y-119274819D01*
X180810000Y-119274819D02*
X180810000Y-119512914D01*
X180571905Y-119417676D02*
X180810000Y-119512914D01*
X180810000Y-119512914D02*
X181048095Y-119417676D01*
X180667143Y-119703390D02*
X180810000Y-119512914D01*
X180810000Y-119512914D02*
X180952857Y-119703390D01*
X181571905Y-119274819D02*
X181571905Y-119512914D01*
X181333810Y-119417676D02*
X181571905Y-119512914D01*
X181571905Y-119512914D02*
X181810000Y-119417676D01*
X181429048Y-119703390D02*
X181571905Y-119512914D01*
X181571905Y-119512914D02*
X181714762Y-119703390D01*
X127676666Y-120274819D02*
X127343333Y-119798628D01*
X127105238Y-120274819D02*
X127105238Y-119274819D01*
X127105238Y-119274819D02*
X127486190Y-119274819D01*
X127486190Y-119274819D02*
X127581428Y-119322438D01*
X127581428Y-119322438D02*
X127629047Y-119370057D01*
X127629047Y-119370057D02*
X127676666Y-119465295D01*
X127676666Y-119465295D02*
X127676666Y-119608152D01*
X127676666Y-119608152D02*
X127629047Y-119703390D01*
X127629047Y-119703390D02*
X127581428Y-119751009D01*
X127581428Y-119751009D02*
X127486190Y-119798628D01*
X127486190Y-119798628D02*
X127105238Y-119798628D01*
X128105238Y-119751009D02*
X128438571Y-119751009D01*
X128581428Y-120274819D02*
X128105238Y-120274819D01*
X128105238Y-120274819D02*
X128105238Y-119274819D01*
X128105238Y-119274819D02*
X128581428Y-119274819D01*
X129343333Y-119751009D02*
X129010000Y-119751009D01*
X129010000Y-120274819D02*
X129010000Y-119274819D01*
X129010000Y-119274819D02*
X129486190Y-119274819D01*
X130010000Y-119274819D02*
X130010000Y-119512914D01*
X129771905Y-119417676D02*
X130010000Y-119512914D01*
X130010000Y-119512914D02*
X130248095Y-119417676D01*
X129867143Y-119703390D02*
X130010000Y-119512914D01*
X130010000Y-119512914D02*
X130152857Y-119703390D01*
X130771905Y-119274819D02*
X130771905Y-119512914D01*
X130533810Y-119417676D02*
X130771905Y-119512914D01*
X130771905Y-119512914D02*
X131010000Y-119417676D01*
X130629048Y-119703390D02*
X130771905Y-119512914D01*
X130771905Y-119512914D02*
X130914762Y-119703390D01*
X153076666Y-110114819D02*
X152743333Y-109638628D01*
X152505238Y-110114819D02*
X152505238Y-109114819D01*
X152505238Y-109114819D02*
X152886190Y-109114819D01*
X152886190Y-109114819D02*
X152981428Y-109162438D01*
X152981428Y-109162438D02*
X153029047Y-109210057D01*
X153029047Y-109210057D02*
X153076666Y-109305295D01*
X153076666Y-109305295D02*
X153076666Y-109448152D01*
X153076666Y-109448152D02*
X153029047Y-109543390D01*
X153029047Y-109543390D02*
X152981428Y-109591009D01*
X152981428Y-109591009D02*
X152886190Y-109638628D01*
X152886190Y-109638628D02*
X152505238Y-109638628D01*
X153505238Y-109591009D02*
X153838571Y-109591009D01*
X153981428Y-110114819D02*
X153505238Y-110114819D01*
X153505238Y-110114819D02*
X153505238Y-109114819D01*
X153505238Y-109114819D02*
X153981428Y-109114819D01*
X154743333Y-109591009D02*
X154410000Y-109591009D01*
X154410000Y-110114819D02*
X154410000Y-109114819D01*
X154410000Y-109114819D02*
X154886190Y-109114819D01*
X155410000Y-109114819D02*
X155410000Y-109352914D01*
X155171905Y-109257676D02*
X155410000Y-109352914D01*
X155410000Y-109352914D02*
X155648095Y-109257676D01*
X155267143Y-109543390D02*
X155410000Y-109352914D01*
X155410000Y-109352914D02*
X155552857Y-109543390D01*
X156171905Y-109114819D02*
X156171905Y-109352914D01*
X155933810Y-109257676D02*
X156171905Y-109352914D01*
X156171905Y-109352914D02*
X156410000Y-109257676D01*
X156029048Y-109543390D02*
X156171905Y-109352914D01*
X156171905Y-109352914D02*
X156314762Y-109543390D01*
X153076666Y-130434819D02*
X152743333Y-129958628D01*
X152505238Y-130434819D02*
X152505238Y-129434819D01*
X152505238Y-129434819D02*
X152886190Y-129434819D01*
X152886190Y-129434819D02*
X152981428Y-129482438D01*
X152981428Y-129482438D02*
X153029047Y-129530057D01*
X153029047Y-129530057D02*
X153076666Y-129625295D01*
X153076666Y-129625295D02*
X153076666Y-129768152D01*
X153076666Y-129768152D02*
X153029047Y-129863390D01*
X153029047Y-129863390D02*
X152981428Y-129911009D01*
X152981428Y-129911009D02*
X152886190Y-129958628D01*
X152886190Y-129958628D02*
X152505238Y-129958628D01*
X153505238Y-129911009D02*
X153838571Y-129911009D01*
X153981428Y-130434819D02*
X153505238Y-130434819D01*
X153505238Y-130434819D02*
X153505238Y-129434819D01*
X153505238Y-129434819D02*
X153981428Y-129434819D01*
X154743333Y-129911009D02*
X154410000Y-129911009D01*
X154410000Y-130434819D02*
X154410000Y-129434819D01*
X154410000Y-129434819D02*
X154886190Y-129434819D01*
X155410000Y-129434819D02*
X155410000Y-129672914D01*
X155171905Y-129577676D02*
X155410000Y-129672914D01*
X155410000Y-129672914D02*
X155648095Y-129577676D01*
X155267143Y-129863390D02*
X155410000Y-129672914D01*
X155410000Y-129672914D02*
X155552857Y-129863390D01*
X156171905Y-129434819D02*
X156171905Y-129672914D01*
X155933810Y-129577676D02*
X156171905Y-129672914D01*
X156171905Y-129672914D02*
X156410000Y-129577676D01*
X156029048Y-129863390D02*
X156171905Y-129672914D01*
X156171905Y-129672914D02*
X156314762Y-129863390D01*
X142916666Y-120274819D02*
X142583333Y-119798628D01*
X142345238Y-120274819D02*
X142345238Y-119274819D01*
X142345238Y-119274819D02*
X142726190Y-119274819D01*
X142726190Y-119274819D02*
X142821428Y-119322438D01*
X142821428Y-119322438D02*
X142869047Y-119370057D01*
X142869047Y-119370057D02*
X142916666Y-119465295D01*
X142916666Y-119465295D02*
X142916666Y-119608152D01*
X142916666Y-119608152D02*
X142869047Y-119703390D01*
X142869047Y-119703390D02*
X142821428Y-119751009D01*
X142821428Y-119751009D02*
X142726190Y-119798628D01*
X142726190Y-119798628D02*
X142345238Y-119798628D01*
X143345238Y-119751009D02*
X143678571Y-119751009D01*
X143821428Y-120274819D02*
X143345238Y-120274819D01*
X143345238Y-120274819D02*
X143345238Y-119274819D01*
X143345238Y-119274819D02*
X143821428Y-119274819D01*
X144583333Y-119751009D02*
X144250000Y-119751009D01*
X144250000Y-120274819D02*
X144250000Y-119274819D01*
X144250000Y-119274819D02*
X144726190Y-119274819D01*
X145250000Y-119274819D02*
X145250000Y-119512914D01*
X145011905Y-119417676D02*
X145250000Y-119512914D01*
X145250000Y-119512914D02*
X145488095Y-119417676D01*
X145107143Y-119703390D02*
X145250000Y-119512914D01*
X145250000Y-119512914D02*
X145392857Y-119703390D01*
X146011905Y-119274819D02*
X146011905Y-119512914D01*
X145773810Y-119417676D02*
X146011905Y-119512914D01*
X146011905Y-119512914D02*
X146250000Y-119417676D01*
X145869048Y-119703390D02*
X146011905Y-119512914D01*
X146011905Y-119512914D02*
X146154762Y-119703390D01*
X171144819Y-99123333D02*
X170668628Y-99456666D01*
X171144819Y-99694761D02*
X170144819Y-99694761D01*
X170144819Y-99694761D02*
X170144819Y-99313809D01*
X170144819Y-99313809D02*
X170192438Y-99218571D01*
X170192438Y-99218571D02*
X170240057Y-99170952D01*
X170240057Y-99170952D02*
X170335295Y-99123333D01*
X170335295Y-99123333D02*
X170478152Y-99123333D01*
X170478152Y-99123333D02*
X170573390Y-99170952D01*
X170573390Y-99170952D02*
X170621009Y-99218571D01*
X170621009Y-99218571D02*
X170668628Y-99313809D01*
X170668628Y-99313809D02*
X170668628Y-99694761D01*
X170621009Y-98694761D02*
X170621009Y-98361428D01*
X171144819Y-98218571D02*
X171144819Y-98694761D01*
X171144819Y-98694761D02*
X170144819Y-98694761D01*
X170144819Y-98694761D02*
X170144819Y-98218571D01*
X170621009Y-97456666D02*
X170621009Y-97789999D01*
X171144819Y-97789999D02*
X170144819Y-97789999D01*
X170144819Y-97789999D02*
X170144819Y-97313809D01*
X170144819Y-96789999D02*
X170382914Y-96789999D01*
X170287676Y-97028094D02*
X170382914Y-96789999D01*
X170382914Y-96789999D02*
X170287676Y-96551904D01*
X170573390Y-96932856D02*
X170382914Y-96789999D01*
X170382914Y-96789999D02*
X170573390Y-96647142D01*
X170144819Y-96028094D02*
X170382914Y-96028094D01*
X170287676Y-96266189D02*
X170382914Y-96028094D01*
X170382914Y-96028094D02*
X170287676Y-95789999D01*
X170573390Y-96170951D02*
X170382914Y-96028094D01*
X170382914Y-96028094D02*
X170573390Y-95885237D01*
D11*
%TO.C,REF\u002A\u002A*%
X123870000Y-96460000D02*
X125200000Y-96460000D01*
X123870000Y-97790000D02*
X123870000Y-96460000D01*
X126470000Y-96460000D02*
X136690000Y-96460000D01*
X126470000Y-99120000D02*
X126470000Y-96460000D01*
X126470000Y-99120000D02*
X136690000Y-99120000D01*
X136690000Y-99120000D02*
X136690000Y-96460000D01*
X161070000Y-114820000D02*
X161070000Y-116320000D01*
X162320000Y-118820000D02*
X166820000Y-118820000D01*
X166820000Y-112320000D02*
X162320000Y-112320000D01*
X168070000Y-116320000D02*
X168070000Y-114820000D01*
X176310000Y-114820000D02*
X176310000Y-116320000D01*
X177560000Y-118820000D02*
X182060000Y-118820000D01*
X182060000Y-112320000D02*
X177560000Y-112320000D01*
X183310000Y-116320000D02*
X183310000Y-114820000D01*
X125510000Y-114820000D02*
X125510000Y-116320000D01*
X126760000Y-118820000D02*
X131260000Y-118820000D01*
X131260000Y-112320000D02*
X126760000Y-112320000D01*
X132510000Y-116320000D02*
X132510000Y-114820000D01*
X150910000Y-104660000D02*
X150910000Y-106160000D01*
X152160000Y-108660000D02*
X156660000Y-108660000D01*
X156660000Y-102160000D02*
X152160000Y-102160000D01*
X157910000Y-106160000D02*
X157910000Y-104660000D01*
X150910000Y-124980000D02*
X150910000Y-126480000D01*
X152160000Y-128980000D02*
X156660000Y-128980000D01*
X156660000Y-122480000D02*
X152160000Y-122480000D01*
X157910000Y-126480000D02*
X157910000Y-124980000D01*
X140750000Y-114820000D02*
X140750000Y-116320000D01*
X142000000Y-118820000D02*
X146500000Y-118820000D01*
X146500000Y-112320000D02*
X142000000Y-112320000D01*
X147750000Y-116320000D02*
X147750000Y-114820000D01*
X172130000Y-96460000D02*
X173460000Y-96460000D01*
X172130000Y-97790000D02*
X172130000Y-96460000D01*
X174730000Y-96460000D02*
X184950000Y-96460000D01*
X174730000Y-99120000D02*
X174730000Y-96460000D01*
X174730000Y-99120000D02*
X184950000Y-99120000D01*
X184950000Y-99120000D02*
X184950000Y-96460000D01*
%TD*%
%LPC*%
D12*
%TO.C,REF\u002A\u002A*%
X125200000Y-97790000D03*
D13*
X127740000Y-97790000D03*
X130280000Y-97790000D03*
X132820000Y-97790000D03*
X135360000Y-97790000D03*
%TD*%
D14*
%TO.C,REF\u002A\u002A*%
X167820000Y-117820000D03*
X161320000Y-117820000D03*
X167820000Y-113320000D03*
X161320000Y-113320000D03*
%TD*%
%TO.C,REF\u002A\u002A*%
X183060000Y-117820000D03*
X176560000Y-117820000D03*
X183060000Y-113320000D03*
X176560000Y-113320000D03*
%TD*%
%TO.C,REF\u002A\u002A*%
X132260000Y-117820000D03*
X125760000Y-117820000D03*
X132260000Y-113320000D03*
X125760000Y-113320000D03*
%TD*%
%TO.C,REF\u002A\u002A*%
X157660000Y-107660000D03*
X151160000Y-107660000D03*
X157660000Y-103160000D03*
X151160000Y-103160000D03*
%TD*%
%TO.C,REF\u002A\u002A*%
X157660000Y-127980000D03*
X151160000Y-127980000D03*
X157660000Y-123480000D03*
X151160000Y-123480000D03*
%TD*%
%TO.C,REF\u002A\u002A*%
X147500000Y-117820000D03*
X141000000Y-117820000D03*
X147500000Y-113320000D03*
X141000000Y-113320000D03*
%TD*%
D12*
%TO.C,REF\u002A\u002A*%
X173460000Y-97790000D03*
D13*
X176000000Y-97790000D03*
X178540000Y-97790000D03*
X181080000Y-97790000D03*
X183620000Y-97790000D03*
%TD*%
D12*
%TO.C,REF\u002A\u002A*%
X155680000Y-64770000D03*
D13*
X153140000Y-64770000D03*
X155680000Y-67310000D03*
X153140000Y-67310000D03*
X155680000Y-69850000D03*
X153140000Y-69850000D03*
X155680000Y-72390000D03*
X153140000Y-72390000D03*
X155680000Y-74930000D03*
X153140000Y-74930000D03*
X155680000Y-77470000D03*
X153140000Y-77470000D03*
X155680000Y-80010000D03*
X153140000Y-80010000D03*
X155680000Y-82550000D03*
X153140000Y-82550000D03*
%TD*%
D12*
%TO.C,REF\u002A\u002A*%
X164570000Y-82550000D03*
D13*
X164570000Y-85090000D03*
%TD*%
D12*
%TO.C,REF\u002A\u002A*%
X113770000Y-85090000D03*
D13*
X113770000Y-82550000D03*
X113770000Y-80010000D03*
X113770000Y-77470000D03*
X113770000Y-74930000D03*
X113770000Y-72390000D03*
X113770000Y-69850000D03*
X113770000Y-67310000D03*
%TD*%
D12*
%TO.C,REF\u002A\u002A*%
X132820000Y-128270000D03*
D13*
X132820000Y-125730000D03*
X130280000Y-128270000D03*
X130280000Y-125730000D03*
X127740000Y-128270000D03*
X127740000Y-125730000D03*
X125200000Y-128270000D03*
X125200000Y-125730000D03*
X122660000Y-128270000D03*
X122660000Y-125730000D03*
X120120000Y-128270000D03*
X120120000Y-125730000D03*
X117580000Y-128270000D03*
X117580000Y-125730000D03*
X115040000Y-128270000D03*
X115040000Y-125730000D03*
%TD*%
D12*
%TO.C,REF\u002A\u002A*%
X186840000Y-72405000D03*
D13*
X186840000Y-74945000D03*
X186840000Y-77485000D03*
%TD*%
D12*
%TO.C,REF\u002A\u002A*%
X176000000Y-125730000D03*
D13*
X176000000Y-128270000D03*
X178540000Y-125730000D03*
X178540000Y-128270000D03*
X181080000Y-125730000D03*
X181080000Y-128270000D03*
X183620000Y-125730000D03*
X183620000Y-128270000D03*
X186160000Y-125730000D03*
X186160000Y-128270000D03*
X188700000Y-125730000D03*
X188700000Y-128270000D03*
X191240000Y-125730000D03*
X191240000Y-128270000D03*
X193780000Y-125730000D03*
X193780000Y-128270000D03*
%TD*%
D12*
%TO.C,REF\u002A\u002A*%
X172190000Y-85090000D03*
D13*
X172190000Y-82550000D03*
X172190000Y-80010000D03*
X172190000Y-77470000D03*
X172190000Y-74930000D03*
X172190000Y-72390000D03*
X172190000Y-69850000D03*
X172190000Y-67310000D03*
%TD*%
%LPD*%
M02*
