%TF.GenerationSoftware,KiCad,Pcbnew,8.0.6*%
%TF.CreationDate,2026-05-29T23:40:40-07:00*%
%TF.ProjectId,TopPCB,546f7050-4342-42e6-9b69-6361645f7063,rev?*%
%TF.SameCoordinates,Original*%
%TF.FileFunction,Soldermask,Top*%
%TF.FilePolarity,Negative*%
%FSLAX46Y46*%
G04 Gerber Fmt 4.6, Leading zero omitted, Abs format (unit mm)*
G04 Created by KiCad (PCBNEW 8.0.6) date 2026-05-29 23:40:40*
%MOMM*%
%LPD*%
G01*
G04 APERTURE LIST*
%ADD10R,1.700000X1.700000*%
%ADD11O,1.700000X1.700000*%
%ADD12C,2.000000*%
G04 APERTURE END LIST*
D10*
%TO.C,REF\u002A\u002A*%
X125200000Y-97790000D03*
D11*
X127740000Y-97790000D03*
X130280000Y-97790000D03*
X132820000Y-97790000D03*
X135360000Y-97790000D03*
%TD*%
D12*
%TO.C,REF\u002A\u002A*%
X167820000Y-117820000D03*
X161320000Y-117820000D03*
X167820000Y-113320000D03*
X161320000Y-113320000D03*
%TD*%
%TO.C,REF\u002A\u002A*%
X183060000Y-117820000D03*
X176560000Y-117820000D03*
X183060000Y-113320000D03*
X176560000Y-113320000D03*
%TD*%
%TO.C,REF\u002A\u002A*%
X132260000Y-117820000D03*
X125760000Y-117820000D03*
X132260000Y-113320000D03*
X125760000Y-113320000D03*
%TD*%
%TO.C,REF\u002A\u002A*%
X157660000Y-107660000D03*
X151160000Y-107660000D03*
X157660000Y-103160000D03*
X151160000Y-103160000D03*
%TD*%
%TO.C,REF\u002A\u002A*%
X157660000Y-127980000D03*
X151160000Y-127980000D03*
X157660000Y-123480000D03*
X151160000Y-123480000D03*
%TD*%
%TO.C,REF\u002A\u002A*%
X147500000Y-117820000D03*
X141000000Y-117820000D03*
X147500000Y-113320000D03*
X141000000Y-113320000D03*
%TD*%
D10*
%TO.C,REF\u002A\u002A*%
X173460000Y-97790000D03*
D11*
X176000000Y-97790000D03*
X178540000Y-97790000D03*
X181080000Y-97790000D03*
X183620000Y-97790000D03*
%TD*%
D10*
%TO.C,REF\u002A\u002A*%
X155680000Y-64770000D03*
D11*
X153140000Y-64770000D03*
X155680000Y-67310000D03*
X153140000Y-67310000D03*
X155680000Y-69850000D03*
X153140000Y-69850000D03*
X155680000Y-72390000D03*
X153140000Y-72390000D03*
X155680000Y-74930000D03*
X153140000Y-74930000D03*
X155680000Y-77470000D03*
X153140000Y-77470000D03*
X155680000Y-80010000D03*
X153140000Y-80010000D03*
X155680000Y-82550000D03*
X153140000Y-82550000D03*
%TD*%
D10*
%TO.C,REF\u002A\u002A*%
X164570000Y-82550000D03*
D11*
X164570000Y-85090000D03*
%TD*%
D10*
%TO.C,REF\u002A\u002A*%
X113770000Y-85090000D03*
D11*
X113770000Y-82550000D03*
X113770000Y-80010000D03*
X113770000Y-77470000D03*
X113770000Y-74930000D03*
X113770000Y-72390000D03*
X113770000Y-69850000D03*
X113770000Y-67310000D03*
%TD*%
D10*
%TO.C,REF\u002A\u002A*%
X132820000Y-128270000D03*
D11*
X132820000Y-125730000D03*
X130280000Y-128270000D03*
X130280000Y-125730000D03*
X127740000Y-128270000D03*
X127740000Y-125730000D03*
X125200000Y-128270000D03*
X125200000Y-125730000D03*
X122660000Y-128270000D03*
X122660000Y-125730000D03*
X120120000Y-128270000D03*
X120120000Y-125730000D03*
X117580000Y-128270000D03*
X117580000Y-125730000D03*
X115040000Y-128270000D03*
X115040000Y-125730000D03*
%TD*%
D10*
%TO.C,REF\u002A\u002A*%
X186840000Y-72405000D03*
D11*
X186840000Y-74945000D03*
X186840000Y-77485000D03*
%TD*%
D10*
%TO.C,REF\u002A\u002A*%
X176000000Y-125730000D03*
D11*
X176000000Y-128270000D03*
X178540000Y-125730000D03*
X178540000Y-128270000D03*
X181080000Y-125730000D03*
X181080000Y-128270000D03*
X183620000Y-125730000D03*
X183620000Y-128270000D03*
X186160000Y-125730000D03*
X186160000Y-128270000D03*
X188700000Y-125730000D03*
X188700000Y-128270000D03*
X191240000Y-125730000D03*
X191240000Y-128270000D03*
X193780000Y-125730000D03*
X193780000Y-128270000D03*
%TD*%
D10*
%TO.C,REF\u002A\u002A*%
X172190000Y-85090000D03*
D11*
X172190000Y-82550000D03*
X172190000Y-80010000D03*
X172190000Y-77470000D03*
X172190000Y-74930000D03*
X172190000Y-72390000D03*
X172190000Y-69850000D03*
X172190000Y-67310000D03*
%TD*%
M02*
