%TF.GenerationSoftware,KiCad,Pcbnew,8.0.6*%
%TF.CreationDate,2026-05-29T23:40:40-07:00*%
%TF.ProjectId,TopPCB,546f7050-4342-42e6-9b69-6361645f7063,rev?*%
%TF.SameCoordinates,Original*%
%TF.FileFunction,Copper,L2,Bot*%
%TF.FilePolarity,Positive*%
%FSLAX46Y46*%
G04 Gerber Fmt 4.6, Leading zero omitted, Abs format (unit mm)*
G04 Created by KiCad (PCBNEW 8.0.6) date 2026-05-29 23:40:40*
%MOMM*%
%LPD*%
G01*
G04 APERTURE LIST*
%TA.AperFunction,ComponentPad*%
%ADD10R,1.700000X1.700000*%
%TD*%
%TA.AperFunction,ComponentPad*%
%ADD11O,1.700000X1.700000*%
%TD*%
%TA.AperFunction,ComponentPad*%
%ADD12C,2.000000*%
%TD*%
%TA.AperFunction,Conductor*%
%ADD13C,0.200000*%
%TD*%
G04 APERTURE END LIST*
D10*
%TO.P,REF\u002A\u002A,1*%
%TO.N,N/C*%
X125200000Y-97790000D03*
D11*
%TO.P,REF\u002A\u002A,2*%
X127740000Y-97790000D03*
%TO.P,REF\u002A\u002A,3*%
X130280000Y-97790000D03*
%TO.P,REF\u002A\u002A,4*%
X132820000Y-97790000D03*
%TO.P,REF\u002A\u002A,5*%
X135360000Y-97790000D03*
%TD*%
D12*
%TO.P,REF\u002A\u002A,1*%
%TO.N,N/C*%
X167820000Y-117820000D03*
X161320000Y-117820000D03*
%TO.P,REF\u002A\u002A,2*%
X167820000Y-113320000D03*
X161320000Y-113320000D03*
%TD*%
%TO.P,REF\u002A\u002A,1*%
%TO.N,N/C*%
X183060000Y-117820000D03*
X176560000Y-117820000D03*
%TO.P,REF\u002A\u002A,2*%
X183060000Y-113320000D03*
X176560000Y-113320000D03*
%TD*%
%TO.P,REF\u002A\u002A,1*%
%TO.N,N/C*%
X132260000Y-117820000D03*
X125760000Y-117820000D03*
%TO.P,REF\u002A\u002A,2*%
X132260000Y-113320000D03*
X125760000Y-113320000D03*
%TD*%
%TO.P,REF\u002A\u002A,1*%
%TO.N,N/C*%
X157660000Y-107660000D03*
X151160000Y-107660000D03*
%TO.P,REF\u002A\u002A,2*%
X157660000Y-103160000D03*
X151160000Y-103160000D03*
%TD*%
%TO.P,REF\u002A\u002A,1*%
%TO.N,N/C*%
X157660000Y-127980000D03*
X151160000Y-127980000D03*
%TO.P,REF\u002A\u002A,2*%
X157660000Y-123480000D03*
X151160000Y-123480000D03*
%TD*%
%TO.P,REF\u002A\u002A,1*%
%TO.N,N/C*%
X147500000Y-117820000D03*
X141000000Y-117820000D03*
%TO.P,REF\u002A\u002A,2*%
X147500000Y-113320000D03*
X141000000Y-113320000D03*
%TD*%
D10*
%TO.P,REF\u002A\u002A,1*%
%TO.N,N/C*%
X173460000Y-97790000D03*
D11*
%TO.P,REF\u002A\u002A,2*%
X176000000Y-97790000D03*
%TO.P,REF\u002A\u002A,3*%
X178540000Y-97790000D03*
%TO.P,REF\u002A\u002A,4*%
X181080000Y-97790000D03*
%TO.P,REF\u002A\u002A,5*%
X183620000Y-97790000D03*
%TD*%
D10*
%TO.P,REF\u002A\u002A,1*%
%TO.N,N/C*%
X155680000Y-64770000D03*
D11*
%TO.P,REF\u002A\u002A,2*%
X153140000Y-64770000D03*
%TO.P,REF\u002A\u002A,3*%
X155680000Y-67310000D03*
%TO.P,REF\u002A\u002A,4*%
X153140000Y-67310000D03*
%TO.P,REF\u002A\u002A,5*%
X155680000Y-69850000D03*
%TO.P,REF\u002A\u002A,6*%
X153140000Y-69850000D03*
%TO.P,REF\u002A\u002A,7*%
X155680000Y-72390000D03*
%TO.P,REF\u002A\u002A,8*%
X153140000Y-72390000D03*
%TO.P,REF\u002A\u002A,9*%
X155680000Y-74930000D03*
%TO.P,REF\u002A\u002A,10*%
X153140000Y-74930000D03*
%TO.P,REF\u002A\u002A,11*%
X155680000Y-77470000D03*
%TO.P,REF\u002A\u002A,12*%
X153140000Y-77470000D03*
%TO.P,REF\u002A\u002A,13*%
X155680000Y-80010000D03*
%TO.P,REF\u002A\u002A,14*%
X153140000Y-80010000D03*
%TO.P,REF\u002A\u002A,15*%
X155680000Y-82550000D03*
%TO.P,REF\u002A\u002A,16*%
X153140000Y-82550000D03*
%TD*%
D10*
%TO.P,REF\u002A\u002A,1*%
%TO.N,N/C*%
X164570000Y-82550000D03*
D11*
%TO.P,REF\u002A\u002A,2*%
X164570000Y-85090000D03*
%TD*%
D10*
%TO.P,REF\u002A\u002A,1*%
%TO.N,N/C*%
X113770000Y-85090000D03*
D11*
%TO.P,REF\u002A\u002A,2*%
X113770000Y-82550000D03*
%TO.P,REF\u002A\u002A,3*%
X113770000Y-80010000D03*
%TO.P,REF\u002A\u002A,4*%
X113770000Y-77470000D03*
%TO.P,REF\u002A\u002A,5*%
X113770000Y-74930000D03*
%TO.P,REF\u002A\u002A,6*%
X113770000Y-72390000D03*
%TO.P,REF\u002A\u002A,7*%
X113770000Y-69850000D03*
%TO.P,REF\u002A\u002A,8*%
X113770000Y-67310000D03*
%TD*%
D10*
%TO.P,REF\u002A\u002A,1*%
%TO.N,N/C*%
X132820000Y-128270000D03*
D11*
%TO.P,REF\u002A\u002A,2*%
X132820000Y-125730000D03*
%TO.P,REF\u002A\u002A,3*%
X130280000Y-128270000D03*
%TO.P,REF\u002A\u002A,4*%
X130280000Y-125730000D03*
%TO.P,REF\u002A\u002A,5*%
X127740000Y-128270000D03*
%TO.P,REF\u002A\u002A,6*%
X127740000Y-125730000D03*
%TO.P,REF\u002A\u002A,7*%
X125200000Y-128270000D03*
%TO.P,REF\u002A\u002A,8*%
X125200000Y-125730000D03*
%TO.P,REF\u002A\u002A,9*%
X122660000Y-128270000D03*
%TO.P,REF\u002A\u002A,10*%
X122660000Y-125730000D03*
%TO.P,REF\u002A\u002A,11*%
X120120000Y-128270000D03*
%TO.P,REF\u002A\u002A,12*%
X120120000Y-125730000D03*
%TO.P,REF\u002A\u002A,13*%
X117580000Y-128270000D03*
%TO.P,REF\u002A\u002A,14*%
X117580000Y-125730000D03*
%TO.P,REF\u002A\u002A,15*%
X115040000Y-128270000D03*
%TO.P,REF\u002A\u002A,16*%
X115040000Y-125730000D03*
%TD*%
D10*
%TO.P,REF\u002A\u002A,1*%
%TO.N,N/C*%
X186840000Y-72405000D03*
D11*
%TO.P,REF\u002A\u002A,2*%
X186840000Y-74945000D03*
%TO.P,REF\u002A\u002A,3*%
X186840000Y-77485000D03*
%TD*%
D10*
%TO.P,REF\u002A\u002A,1*%
%TO.N,N/C*%
X176000000Y-125730000D03*
D11*
%TO.P,REF\u002A\u002A,2*%
X176000000Y-128270000D03*
%TO.P,REF\u002A\u002A,3*%
X178540000Y-125730000D03*
%TO.P,REF\u002A\u002A,4*%
X178540000Y-128270000D03*
%TO.P,REF\u002A\u002A,5*%
X181080000Y-125730000D03*
%TO.P,REF\u002A\u002A,6*%
X181080000Y-128270000D03*
%TO.P,REF\u002A\u002A,7*%
X183620000Y-125730000D03*
%TO.P,REF\u002A\u002A,8*%
X183620000Y-128270000D03*
%TO.P,REF\u002A\u002A,9*%
X186160000Y-125730000D03*
%TO.P,REF\u002A\u002A,10*%
X186160000Y-128270000D03*
%TO.P,REF\u002A\u002A,11*%
X188700000Y-125730000D03*
%TO.P,REF\u002A\u002A,12*%
X188700000Y-128270000D03*
%TO.P,REF\u002A\u002A,13*%
X191240000Y-125730000D03*
%TO.P,REF\u002A\u002A,14*%
X191240000Y-128270000D03*
%TO.P,REF\u002A\u002A,15*%
X193780000Y-125730000D03*
%TO.P,REF\u002A\u002A,16*%
X193780000Y-128270000D03*
%TD*%
D10*
%TO.P,REF\u002A\u002A,1*%
%TO.N,N/C*%
X172190000Y-85090000D03*
D11*
%TO.P,REF\u002A\u002A,2*%
X172190000Y-82550000D03*
%TO.P,REF\u002A\u002A,3*%
X172190000Y-80010000D03*
%TO.P,REF\u002A\u002A,4*%
X172190000Y-77470000D03*
%TO.P,REF\u002A\u002A,5*%
X172190000Y-74930000D03*
%TO.P,REF\u002A\u002A,6*%
X172190000Y-72390000D03*
%TO.P,REF\u002A\u002A,7*%
X172190000Y-69850000D03*
%TO.P,REF\u002A\u002A,8*%
X172190000Y-67310000D03*
%TD*%
D13*
%TO.N,*%
X151870000Y-93980000D02*
X136630000Y-93980000D01*
X181080000Y-97790000D02*
X193780000Y-110490000D01*
X188700000Y-125730000D02*
X188700000Y-110490000D01*
X159490000Y-81280000D02*
X159490000Y-86360000D01*
X113770000Y-69850000D02*
X116310000Y-72390000D01*
X155680000Y-77470000D02*
X159490000Y-81280000D01*
X193780000Y-110490000D02*
X193780000Y-125730000D01*
X158220000Y-83820000D02*
X149330000Y-92710000D01*
X191240000Y-125730000D02*
X191240000Y-110490000D01*
X116310000Y-72390000D02*
X153140000Y-72390000D01*
X159490000Y-86360000D02*
X151870000Y-93980000D01*
X136630000Y-93980000D02*
X135360000Y-95250000D01*
X135360000Y-95250000D02*
X135360000Y-97790000D01*
X130280000Y-97790000D02*
X130280000Y-92710000D01*
X132820000Y-93980000D02*
X132820000Y-97790000D01*
X191240000Y-110490000D02*
X178540000Y-97790000D01*
X188700000Y-110490000D02*
X176000000Y-97790000D01*
X158220000Y-82550000D02*
X158220000Y-83820000D01*
X131550000Y-91440000D02*
X146790000Y-91440000D01*
X155680000Y-80010000D02*
X158220000Y-82550000D01*
X134090000Y-92710000D02*
X132820000Y-93980000D01*
X172190000Y-77470000D02*
X186825000Y-77470000D01*
X146790000Y-91440000D02*
X155680000Y-82550000D01*
X130280000Y-92710000D02*
X131550000Y-91440000D01*
X149330000Y-92710000D02*
X134090000Y-92710000D01*
X186825000Y-77470000D02*
X186840000Y-77485000D01*
%TD*%
M02*
