M48
; DRILL file {KiCad 8.0.6} date 2026-05-29T23:41:03-0700
; FORMAT={-:-/ absolute / metric / decimal}
; #@! TF.CreationDate,2026-05-29T23:41:03-07:00
; #@! TF.GenerationSoftware,Kicad,Pcbnew,8.0.6
; #@! TF.FileFunction,MixedPlating,1,2
FMAT,2
METRIC
; #@! TA.AperFunction,Plated,PTH,ComponentDrill
T1C1.000
; #@! TA.AperFunction,Plated,PTH,ComponentDrill
T2C1.100
%
G90
G05
T1
X113.77Y-67.31
X113.77Y-69.85
X113.77Y-72.39
X113.77Y-74.93
X113.77Y-77.47
X113.77Y-80.01
X113.77Y-82.55
X113.77Y-85.09
X115.04Y-125.73
X115.04Y-128.27
X117.58Y-125.73
X117.58Y-128.27
X120.12Y-125.73
X120.12Y-128.27
X122.66Y-125.73
X122.66Y-128.27
X125.2Y-97.79
X125.2Y-125.73
X125.2Y-128.27
X127.74Y-97.79
X127.74Y-125.73
X127.74Y-128.27
X130.28Y-97.79
X130.28Y-125.73
X130.28Y-128.27
X132.82Y-97.79
X132.82Y-125.73
X132.82Y-128.27
X135.36Y-97.79
X153.14Y-64.77
X153.14Y-67.31
X153.14Y-69.85
X153.14Y-72.39
X153.14Y-74.93
X153.14Y-77.47
X153.14Y-80.01
X153.14Y-82.55
X155.68Y-64.77
X155.68Y-67.31
X155.68Y-69.85
X155.68Y-72.39
X155.68Y-74.93
X155.68Y-77.47
X155.68Y-80.01
X155.68Y-82.55
X164.57Y-82.55
X164.57Y-85.09
X172.19Y-67.31
X172.19Y-69.85
X172.19Y-72.39
X172.19Y-74.93
X172.19Y-77.47
X172.19Y-80.01
X172.19Y-82.55
X172.19Y-85.09
X173.46Y-97.79
X176.0Y-97.79
X176.0Y-125.73
X176.0Y-128.27
X178.54Y-97.79
X178.54Y-125.73
X178.54Y-128.27
X181.08Y-97.79
X181.08Y-125.73
X181.08Y-128.27
X183.62Y-97.79
X183.62Y-125.73
X183.62Y-128.27
X186.16Y-125.73
X186.16Y-128.27
X186.84Y-72.405
X186.84Y-74.945
X186.84Y-77.485
X188.7Y-125.73
X188.7Y-128.27
X191.24Y-125.73
X191.24Y-128.27
X193.78Y-125.73
X193.78Y-128.27
T2
X125.76Y-113.32
X125.76Y-117.82
X132.26Y-113.32
X132.26Y-117.82
X141.0Y-113.32
X141.0Y-117.82
X147.5Y-113.32
X147.5Y-117.82
X151.16Y-103.16
X151.16Y-107.66
X151.16Y-123.48
X151.16Y-127.98
X157.66Y-103.16
X157.66Y-107.66
X157.66Y-123.48
X157.66Y-127.98
X161.32Y-113.32
X161.32Y-117.82
X167.82Y-113.32
X167.82Y-117.82
X176.56Y-113.32
X176.56Y-117.82
X183.06Y-113.32
X183.06Y-117.82
M30
