%TF.GenerationSoftware,KiCad,Pcbnew,8.0.6*%
%TF.CreationDate,2026-05-29T23:40:40-07:00*%
%TF.ProjectId,TopPCB,546f7050-4342-42e6-9b69-6361645f7063,rev?*%
%TF.SameCoordinates,Original*%
%TF.FileFunction,Legend,Bot*%
%TF.FilePolarity,Positive*%
%FSLAX46Y46*%
G04 Gerber Fmt 4.6, Leading zero omitted, Abs format (unit mm)*
G04 Created by KiCad (PCBNEW 8.0.6) date 2026-05-29 23:40:40*
%MOMM*%
%LPD*%
G01*
G04 APERTURE LIST*
%ADD10C,0.150000*%
%ADD11C,0.120000*%
%ADD12R,1.700000X1.700000*%
%ADD13O,1.700000X1.700000*%
%ADD14C,2.000000*%
G04 APERTURE END LIST*
D10*
X155743333Y-62894819D02*
X156076666Y-62418628D01*
X156314761Y-62894819D02*
X156314761Y-61894819D01*
X156314761Y-61894819D02*
X155933809Y-61894819D01*
X155933809Y-61894819D02*
X155838571Y-61942438D01*
X155838571Y-61942438D02*
X155790952Y-61990057D01*
X155790952Y-61990057D02*
X155743333Y-62085295D01*
X155743333Y-62085295D02*
X155743333Y-62228152D01*
X155743333Y-62228152D02*
X155790952Y-62323390D01*
X155790952Y-62323390D02*
X155838571Y-62371009D01*
X155838571Y-62371009D02*
X155933809Y-62418628D01*
X155933809Y-62418628D02*
X156314761Y-62418628D01*
X155314761Y-62371009D02*
X154981428Y-62371009D01*
X154838571Y-62894819D02*
X155314761Y-62894819D01*
X155314761Y-62894819D02*
X155314761Y-61894819D01*
X155314761Y-61894819D02*
X154838571Y-61894819D01*
X154076666Y-62371009D02*
X154409999Y-62371009D01*
X154409999Y-62894819D02*
X154409999Y-61894819D01*
X154409999Y-61894819D02*
X153933809Y-61894819D01*
X153409999Y-61894819D02*
X153409999Y-62132914D01*
X153648094Y-62037676D02*
X153409999Y-62132914D01*
X153409999Y-62132914D02*
X153171904Y-62037676D01*
X153552856Y-62323390D02*
X153409999Y-62132914D01*
X153409999Y-62132914D02*
X153267142Y-62323390D01*
X152648094Y-61894819D02*
X152648094Y-62132914D01*
X152886189Y-62037676D02*
X152648094Y-62132914D01*
X152648094Y-62132914D02*
X152409999Y-62037676D01*
X152790951Y-62323390D02*
X152648094Y-62132914D01*
X152648094Y-62132914D02*
X152505237Y-62323390D01*
X165903333Y-80234819D02*
X166236666Y-79758628D01*
X166474761Y-80234819D02*
X166474761Y-79234819D01*
X166474761Y-79234819D02*
X166093809Y-79234819D01*
X166093809Y-79234819D02*
X165998571Y-79282438D01*
X165998571Y-79282438D02*
X165950952Y-79330057D01*
X165950952Y-79330057D02*
X165903333Y-79425295D01*
X165903333Y-79425295D02*
X165903333Y-79568152D01*
X165903333Y-79568152D02*
X165950952Y-79663390D01*
X165950952Y-79663390D02*
X165998571Y-79711009D01*
X165998571Y-79711009D02*
X166093809Y-79758628D01*
X166093809Y-79758628D02*
X166474761Y-79758628D01*
X165474761Y-79711009D02*
X165141428Y-79711009D01*
X164998571Y-80234819D02*
X165474761Y-80234819D01*
X165474761Y-80234819D02*
X165474761Y-79234819D01*
X165474761Y-79234819D02*
X164998571Y-79234819D01*
X164236666Y-79711009D02*
X164569999Y-79711009D01*
X164569999Y-80234819D02*
X164569999Y-79234819D01*
X164569999Y-79234819D02*
X164093809Y-79234819D01*
X163569999Y-79234819D02*
X163569999Y-79472914D01*
X163808094Y-79377676D02*
X163569999Y-79472914D01*
X163569999Y-79472914D02*
X163331904Y-79377676D01*
X163712856Y-79663390D02*
X163569999Y-79472914D01*
X163569999Y-79472914D02*
X163427142Y-79663390D01*
X162808094Y-79234819D02*
X162808094Y-79472914D01*
X163046189Y-79377676D02*
X162808094Y-79472914D01*
X162808094Y-79472914D02*
X162569999Y-79377676D01*
X162950951Y-79663390D02*
X162808094Y-79472914D01*
X162808094Y-79472914D02*
X162665237Y-79663390D01*
X115103333Y-88314819D02*
X115436666Y-87838628D01*
X115674761Y-88314819D02*
X115674761Y-87314819D01*
X115674761Y-87314819D02*
X115293809Y-87314819D01*
X115293809Y-87314819D02*
X115198571Y-87362438D01*
X115198571Y-87362438D02*
X115150952Y-87410057D01*
X115150952Y-87410057D02*
X115103333Y-87505295D01*
X115103333Y-87505295D02*
X115103333Y-87648152D01*
X115103333Y-87648152D02*
X115150952Y-87743390D01*
X115150952Y-87743390D02*
X115198571Y-87791009D01*
X115198571Y-87791009D02*
X115293809Y-87838628D01*
X115293809Y-87838628D02*
X115674761Y-87838628D01*
X114674761Y-87791009D02*
X114341428Y-87791009D01*
X114198571Y-88314819D02*
X114674761Y-88314819D01*
X114674761Y-88314819D02*
X114674761Y-87314819D01*
X114674761Y-87314819D02*
X114198571Y-87314819D01*
X113436666Y-87791009D02*
X113769999Y-87791009D01*
X113769999Y-88314819D02*
X113769999Y-87314819D01*
X113769999Y-87314819D02*
X113293809Y-87314819D01*
X112769999Y-87314819D02*
X112769999Y-87552914D01*
X113008094Y-87457676D02*
X112769999Y-87552914D01*
X112769999Y-87552914D02*
X112531904Y-87457676D01*
X112912856Y-87743390D02*
X112769999Y-87552914D01*
X112769999Y-87552914D02*
X112627142Y-87743390D01*
X112008094Y-87314819D02*
X112008094Y-87552914D01*
X112246189Y-87457676D02*
X112008094Y-87552914D01*
X112008094Y-87552914D02*
X111769999Y-87457676D01*
X112150951Y-87743390D02*
X112008094Y-87552914D01*
X112008094Y-87552914D02*
X111865237Y-87743390D01*
X135604819Y-125666666D02*
X135128628Y-125333333D01*
X135604819Y-125095238D02*
X134604819Y-125095238D01*
X134604819Y-125095238D02*
X134604819Y-125476190D01*
X134604819Y-125476190D02*
X134652438Y-125571428D01*
X134652438Y-125571428D02*
X134700057Y-125619047D01*
X134700057Y-125619047D02*
X134795295Y-125666666D01*
X134795295Y-125666666D02*
X134938152Y-125666666D01*
X134938152Y-125666666D02*
X135033390Y-125619047D01*
X135033390Y-125619047D02*
X135081009Y-125571428D01*
X135081009Y-125571428D02*
X135128628Y-125476190D01*
X135128628Y-125476190D02*
X135128628Y-125095238D01*
X135081009Y-126095238D02*
X135081009Y-126428571D01*
X135604819Y-126571428D02*
X135604819Y-126095238D01*
X135604819Y-126095238D02*
X134604819Y-126095238D01*
X134604819Y-126095238D02*
X134604819Y-126571428D01*
X135081009Y-127333333D02*
X135081009Y-127000000D01*
X135604819Y-127000000D02*
X134604819Y-127000000D01*
X134604819Y-127000000D02*
X134604819Y-127476190D01*
X134604819Y-128000000D02*
X134842914Y-128000000D01*
X134747676Y-127761905D02*
X134842914Y-128000000D01*
X134842914Y-128000000D02*
X134747676Y-128238095D01*
X135033390Y-127857143D02*
X134842914Y-128000000D01*
X134842914Y-128000000D02*
X135033390Y-128142857D01*
X134604819Y-128761905D02*
X134842914Y-128761905D01*
X134747676Y-128523810D02*
X134842914Y-128761905D01*
X134842914Y-128761905D02*
X134747676Y-129000000D01*
X135033390Y-128619048D02*
X134842914Y-128761905D01*
X134842914Y-128761905D02*
X135033390Y-128904762D01*
X192553333Y-70089819D02*
X192886666Y-69613628D01*
X193124761Y-70089819D02*
X193124761Y-69089819D01*
X193124761Y-69089819D02*
X192743809Y-69089819D01*
X192743809Y-69089819D02*
X192648571Y-69137438D01*
X192648571Y-69137438D02*
X192600952Y-69185057D01*
X192600952Y-69185057D02*
X192553333Y-69280295D01*
X192553333Y-69280295D02*
X192553333Y-69423152D01*
X192553333Y-69423152D02*
X192600952Y-69518390D01*
X192600952Y-69518390D02*
X192648571Y-69566009D01*
X192648571Y-69566009D02*
X192743809Y-69613628D01*
X192743809Y-69613628D02*
X193124761Y-69613628D01*
X192124761Y-69566009D02*
X191791428Y-69566009D01*
X191648571Y-70089819D02*
X192124761Y-70089819D01*
X192124761Y-70089819D02*
X192124761Y-69089819D01*
X192124761Y-69089819D02*
X191648571Y-69089819D01*
X190886666Y-69566009D02*
X191219999Y-69566009D01*
X191219999Y-70089819D02*
X191219999Y-69089819D01*
X191219999Y-69089819D02*
X190743809Y-69089819D01*
X190219999Y-69089819D02*
X190219999Y-69327914D01*
X190458094Y-69232676D02*
X190219999Y-69327914D01*
X190219999Y-69327914D02*
X189981904Y-69232676D01*
X190362856Y-69518390D02*
X190219999Y-69327914D01*
X190219999Y-69327914D02*
X190077142Y-69518390D01*
X189458094Y-69089819D02*
X189458094Y-69327914D01*
X189696189Y-69232676D02*
X189458094Y-69327914D01*
X189458094Y-69327914D02*
X189219999Y-69232676D01*
X189600951Y-69518390D02*
X189458094Y-69327914D01*
X189458094Y-69327914D02*
X189315237Y-69518390D01*
X174124819Y-125666666D02*
X173648628Y-125333333D01*
X174124819Y-125095238D02*
X173124819Y-125095238D01*
X173124819Y-125095238D02*
X173124819Y-125476190D01*
X173124819Y-125476190D02*
X173172438Y-125571428D01*
X173172438Y-125571428D02*
X173220057Y-125619047D01*
X173220057Y-125619047D02*
X173315295Y-125666666D01*
X173315295Y-125666666D02*
X173458152Y-125666666D01*
X173458152Y-125666666D02*
X173553390Y-125619047D01*
X173553390Y-125619047D02*
X173601009Y-125571428D01*
X173601009Y-125571428D02*
X173648628Y-125476190D01*
X173648628Y-125476190D02*
X173648628Y-125095238D01*
X173601009Y-126095238D02*
X173601009Y-126428571D01*
X174124819Y-126571428D02*
X174124819Y-126095238D01*
X174124819Y-126095238D02*
X173124819Y-126095238D01*
X173124819Y-126095238D02*
X173124819Y-126571428D01*
X173601009Y-127333333D02*
X173601009Y-127000000D01*
X174124819Y-127000000D02*
X173124819Y-127000000D01*
X173124819Y-127000000D02*
X173124819Y-127476190D01*
X173124819Y-128000000D02*
X173362914Y-128000000D01*
X173267676Y-127761905D02*
X173362914Y-128000000D01*
X173362914Y-128000000D02*
X173267676Y-128238095D01*
X173553390Y-127857143D02*
X173362914Y-128000000D01*
X173362914Y-128000000D02*
X173553390Y-128142857D01*
X173124819Y-128761905D02*
X173362914Y-128761905D01*
X173267676Y-128523810D02*
X173362914Y-128761905D01*
X173362914Y-128761905D02*
X173267676Y-129000000D01*
X173553390Y-128619048D02*
X173362914Y-128761905D01*
X173362914Y-128761905D02*
X173553390Y-128904762D01*
X173523333Y-88314819D02*
X173856666Y-87838628D01*
X174094761Y-88314819D02*
X174094761Y-87314819D01*
X174094761Y-87314819D02*
X173713809Y-87314819D01*
X173713809Y-87314819D02*
X173618571Y-87362438D01*
X173618571Y-87362438D02*
X173570952Y-87410057D01*
X173570952Y-87410057D02*
X173523333Y-87505295D01*
X173523333Y-87505295D02*
X173523333Y-87648152D01*
X173523333Y-87648152D02*
X173570952Y-87743390D01*
X173570952Y-87743390D02*
X173618571Y-87791009D01*
X173618571Y-87791009D02*
X173713809Y-87838628D01*
X173713809Y-87838628D02*
X174094761Y-87838628D01*
X173094761Y-87791009D02*
X172761428Y-87791009D01*
X172618571Y-88314819D02*
X173094761Y-88314819D01*
X173094761Y-88314819D02*
X173094761Y-87314819D01*
X173094761Y-87314819D02*
X172618571Y-87314819D01*
X171856666Y-87791009D02*
X172189999Y-87791009D01*
X172189999Y-88314819D02*
X172189999Y-87314819D01*
X172189999Y-87314819D02*
X171713809Y-87314819D01*
X171189999Y-87314819D02*
X171189999Y-87552914D01*
X171428094Y-87457676D02*
X171189999Y-87552914D01*
X171189999Y-87552914D02*
X170951904Y-87457676D01*
X171332856Y-87743390D02*
X171189999Y-87552914D01*
X171189999Y-87552914D02*
X171047142Y-87743390D01*
X170428094Y-87314819D02*
X170428094Y-87552914D01*
X170666189Y-87457676D02*
X170428094Y-87552914D01*
X170428094Y-87552914D02*
X170189999Y-87457676D01*
X170570951Y-87743390D02*
X170428094Y-87552914D01*
X170428094Y-87552914D02*
X170285237Y-87743390D01*
D11*
%TO.C,REF\u002A\u002A*%
X151810000Y-63440000D02*
X154410000Y-63440000D01*
X151810000Y-83880000D02*
X151810000Y-63440000D01*
X151810000Y-83880000D02*
X157010000Y-83880000D01*
X154410000Y-63440000D02*
X154410000Y-66040000D01*
X154410000Y-66040000D02*
X157010000Y-66040000D01*
X155680000Y-63440000D02*
X157010000Y-63440000D01*
X157010000Y-63440000D02*
X157010000Y-64770000D01*
X157010000Y-83880000D02*
X157010000Y-66040000D01*
X163240000Y-81220000D02*
X164570000Y-81220000D01*
X163240000Y-82550000D02*
X163240000Y-81220000D01*
X163240000Y-83820000D02*
X165900000Y-83820000D01*
X163240000Y-86420000D02*
X163240000Y-83820000D01*
X163240000Y-86420000D02*
X165900000Y-86420000D01*
X165900000Y-86420000D02*
X165900000Y-83820000D01*
X112440000Y-65980000D02*
X112440000Y-83820000D01*
X115100000Y-65980000D02*
X112440000Y-65980000D01*
X115100000Y-65980000D02*
X115100000Y-83820000D01*
X115100000Y-83820000D02*
X112440000Y-83820000D01*
X115100000Y-85090000D02*
X115100000Y-86420000D01*
X115100000Y-86420000D02*
X113770000Y-86420000D01*
X113710000Y-124400000D02*
X113710000Y-129600000D01*
X113710000Y-124400000D02*
X134150000Y-124400000D01*
X113710000Y-129600000D02*
X131550000Y-129600000D01*
X131550000Y-127000000D02*
X131550000Y-129600000D01*
X134150000Y-124400000D02*
X134150000Y-127000000D01*
X134150000Y-127000000D02*
X131550000Y-127000000D01*
X134150000Y-128270000D02*
X134150000Y-129600000D01*
X134150000Y-129600000D02*
X132820000Y-129600000D01*
X185730000Y-71075000D02*
X186840000Y-71075000D01*
X185730000Y-72405000D02*
X185730000Y-71075000D01*
X187890000Y-74585000D02*
X188300000Y-74585000D01*
X187890000Y-75305000D02*
X188300000Y-75305000D01*
X187890000Y-77125000D02*
X188300000Y-77125000D01*
X187890000Y-77845000D02*
X188300000Y-77845000D01*
X187950000Y-72045000D02*
X188300000Y-72045000D01*
X187950000Y-72765000D02*
X188300000Y-72765000D01*
X188300000Y-71075000D02*
X196930000Y-71075000D01*
X188300000Y-71195000D02*
X196930000Y-71195000D01*
X188300000Y-71313095D02*
X196930000Y-71313095D01*
X188300000Y-71431190D02*
X196930000Y-71431190D01*
X188300000Y-71549285D02*
X196930000Y-71549285D01*
X188300000Y-71667380D02*
X196930000Y-71667380D01*
X188300000Y-71785475D02*
X196930000Y-71785475D01*
X188300000Y-71903570D02*
X196930000Y-71903570D01*
X188300000Y-72021665D02*
X196930000Y-72021665D01*
X188300000Y-72139760D02*
X196930000Y-72139760D01*
X188300000Y-72257855D02*
X196930000Y-72257855D01*
X188300000Y-72375950D02*
X196930000Y-72375950D01*
X188300000Y-72494045D02*
X196930000Y-72494045D01*
X188300000Y-72612140D02*
X196930000Y-72612140D01*
X188300000Y-72730235D02*
X196930000Y-72730235D01*
X188300000Y-72848330D02*
X196930000Y-72848330D01*
X188300000Y-72966425D02*
X196930000Y-72966425D01*
X188300000Y-73084520D02*
X196930000Y-73084520D01*
X188300000Y-73202615D02*
X196930000Y-73202615D01*
X188300000Y-73320710D02*
X196930000Y-73320710D01*
X188300000Y-73438805D02*
X196930000Y-73438805D01*
X188300000Y-73556900D02*
X196930000Y-73556900D01*
X188300000Y-73675000D02*
X196930000Y-73675000D01*
X188300000Y-76215000D02*
X196930000Y-76215000D01*
X188300000Y-78815000D02*
X188300000Y-71075000D01*
X188300000Y-78815000D02*
X196930000Y-78815000D01*
X196930000Y-78815000D02*
X196930000Y-71075000D01*
X174670000Y-124400000D02*
X176000000Y-124400000D01*
X174670000Y-125730000D02*
X174670000Y-124400000D01*
X174670000Y-127000000D02*
X177270000Y-127000000D01*
X174670000Y-129600000D02*
X174670000Y-127000000D01*
X177270000Y-127000000D02*
X177270000Y-124400000D01*
X195110000Y-124400000D02*
X177270000Y-124400000D01*
X195110000Y-129600000D02*
X174670000Y-129600000D01*
X195110000Y-129600000D02*
X195110000Y-124400000D01*
X170860000Y-65980000D02*
X170860000Y-83820000D01*
X173520000Y-65980000D02*
X170860000Y-65980000D01*
X173520000Y-65980000D02*
X173520000Y-83820000D01*
X173520000Y-83820000D02*
X170860000Y-83820000D01*
X173520000Y-85090000D02*
X173520000Y-86420000D01*
X173520000Y-86420000D02*
X172190000Y-86420000D01*
%TD*%
%LPC*%
D12*
%TO.C,REF\u002A\u002A*%
X125200000Y-97790000D03*
D13*
X127740000Y-97790000D03*
X130280000Y-97790000D03*
X132820000Y-97790000D03*
X135360000Y-97790000D03*
%TD*%
D14*
%TO.C,REF\u002A\u002A*%
X167820000Y-117820000D03*
X161320000Y-117820000D03*
X167820000Y-113320000D03*
X161320000Y-113320000D03*
%TD*%
%TO.C,REF\u002A\u002A*%
X183060000Y-117820000D03*
X176560000Y-117820000D03*
X183060000Y-113320000D03*
X176560000Y-113320000D03*
%TD*%
%TO.C,REF\u002A\u002A*%
X132260000Y-117820000D03*
X125760000Y-117820000D03*
X132260000Y-113320000D03*
X125760000Y-113320000D03*
%TD*%
%TO.C,REF\u002A\u002A*%
X157660000Y-107660000D03*
X151160000Y-107660000D03*
X157660000Y-103160000D03*
X151160000Y-103160000D03*
%TD*%
%TO.C,REF\u002A\u002A*%
X157660000Y-127980000D03*
X151160000Y-127980000D03*
X157660000Y-123480000D03*
X151160000Y-123480000D03*
%TD*%
%TO.C,REF\u002A\u002A*%
X147500000Y-117820000D03*
X141000000Y-117820000D03*
X147500000Y-113320000D03*
X141000000Y-113320000D03*
%TD*%
D12*
%TO.C,REF\u002A\u002A*%
X173460000Y-97790000D03*
D13*
X176000000Y-97790000D03*
X178540000Y-97790000D03*
X181080000Y-97790000D03*
X183620000Y-97790000D03*
%TD*%
D12*
%TO.C,REF\u002A\u002A*%
X155680000Y-64770000D03*
D13*
X153140000Y-64770000D03*
X155680000Y-67310000D03*
X153140000Y-67310000D03*
X155680000Y-69850000D03*
X153140000Y-69850000D03*
X155680000Y-72390000D03*
X153140000Y-72390000D03*
X155680000Y-74930000D03*
X153140000Y-74930000D03*
X155680000Y-77470000D03*
X153140000Y-77470000D03*
X155680000Y-80010000D03*
X153140000Y-80010000D03*
X155680000Y-82550000D03*
X153140000Y-82550000D03*
%TD*%
D12*
%TO.C,REF\u002A\u002A*%
X164570000Y-82550000D03*
D13*
X164570000Y-85090000D03*
%TD*%
D12*
%TO.C,REF\u002A\u002A*%
X113770000Y-85090000D03*
D13*
X113770000Y-82550000D03*
X113770000Y-80010000D03*
X113770000Y-77470000D03*
X113770000Y-74930000D03*
X113770000Y-72390000D03*
X113770000Y-69850000D03*
X113770000Y-67310000D03*
%TD*%
D12*
%TO.C,REF\u002A\u002A*%
X132820000Y-128270000D03*
D13*
X132820000Y-125730000D03*
X130280000Y-128270000D03*
X130280000Y-125730000D03*
X127740000Y-128270000D03*
X127740000Y-125730000D03*
X125200000Y-128270000D03*
X125200000Y-125730000D03*
X122660000Y-128270000D03*
X122660000Y-125730000D03*
X120120000Y-128270000D03*
X120120000Y-125730000D03*
X117580000Y-128270000D03*
X117580000Y-125730000D03*
X115040000Y-128270000D03*
X115040000Y-125730000D03*
%TD*%
D12*
%TO.C,REF\u002A\u002A*%
X186840000Y-72405000D03*
D13*
X186840000Y-74945000D03*
X186840000Y-77485000D03*
%TD*%
D12*
%TO.C,REF\u002A\u002A*%
X176000000Y-125730000D03*
D13*
X176000000Y-128270000D03*
X178540000Y-125730000D03*
X178540000Y-128270000D03*
X181080000Y-125730000D03*
X181080000Y-128270000D03*
X183620000Y-125730000D03*
X183620000Y-128270000D03*
X186160000Y-125730000D03*
X186160000Y-128270000D03*
X188700000Y-125730000D03*
X188700000Y-128270000D03*
X191240000Y-125730000D03*
X191240000Y-128270000D03*
X193780000Y-125730000D03*
X193780000Y-128270000D03*
%TD*%
D12*
%TO.C,REF\u002A\u002A*%
X172190000Y-85090000D03*
D13*
X172190000Y-82550000D03*
X172190000Y-80010000D03*
X172190000Y-77470000D03*
X172190000Y-74930000D03*
X172190000Y-72390000D03*
X172190000Y-69850000D03*
X172190000Y-67310000D03*
%TD*%
%LPD*%
M02*
