%TF.GenerationSoftware,KiCad,Pcbnew,8.0.6*%
%TF.CreationDate,2026-05-29T23:41:27-07:00*%
%TF.ProjectId,BottomPCB,426f7474-6f6d-4504-9342-2e6b69636164,rev?*%
%TF.SameCoordinates,Original*%
%TF.FileFunction,Legend,Top*%
%TF.FilePolarity,Positive*%
%FSLAX46Y46*%
G04 Gerber Fmt 4.6, Leading zero omitted, Abs format (unit mm)*
G04 Created by KiCad (PCBNEW 8.0.6) date 2026-05-29 23:41:27*
%MOMM*%
%LPD*%
G01*
G04 APERTURE LIST*
%ADD10C,0.150000*%
%ADD11C,0.120000*%
%ADD12C,3.000000*%
%ADD13R,1.700000X1.700000*%
%ADD14O,1.700000X1.700000*%
G04 APERTURE END LIST*
D10*
X104816666Y-64399819D02*
X104483333Y-63923628D01*
X104245238Y-64399819D02*
X104245238Y-63399819D01*
X104245238Y-63399819D02*
X104626190Y-63399819D01*
X104626190Y-63399819D02*
X104721428Y-63447438D01*
X104721428Y-63447438D02*
X104769047Y-63495057D01*
X104769047Y-63495057D02*
X104816666Y-63590295D01*
X104816666Y-63590295D02*
X104816666Y-63733152D01*
X104816666Y-63733152D02*
X104769047Y-63828390D01*
X104769047Y-63828390D02*
X104721428Y-63876009D01*
X104721428Y-63876009D02*
X104626190Y-63923628D01*
X104626190Y-63923628D02*
X104245238Y-63923628D01*
X105245238Y-63876009D02*
X105578571Y-63876009D01*
X105721428Y-64399819D02*
X105245238Y-64399819D01*
X105245238Y-64399819D02*
X105245238Y-63399819D01*
X105245238Y-63399819D02*
X105721428Y-63399819D01*
X106483333Y-63876009D02*
X106150000Y-63876009D01*
X106150000Y-64399819D02*
X106150000Y-63399819D01*
X106150000Y-63399819D02*
X106626190Y-63399819D01*
X107150000Y-63399819D02*
X107150000Y-63637914D01*
X106911905Y-63542676D02*
X107150000Y-63637914D01*
X107150000Y-63637914D02*
X107388095Y-63542676D01*
X107007143Y-63828390D02*
X107150000Y-63637914D01*
X107150000Y-63637914D02*
X107292857Y-63828390D01*
X107911905Y-63399819D02*
X107911905Y-63637914D01*
X107673810Y-63542676D02*
X107911905Y-63637914D01*
X107911905Y-63637914D02*
X108150000Y-63542676D01*
X107769048Y-63828390D02*
X107911905Y-63637914D01*
X107911905Y-63637914D02*
X108054762Y-63828390D01*
X128424819Y-131508333D02*
X127948628Y-131841666D01*
X128424819Y-132079761D02*
X127424819Y-132079761D01*
X127424819Y-132079761D02*
X127424819Y-131698809D01*
X127424819Y-131698809D02*
X127472438Y-131603571D01*
X127472438Y-131603571D02*
X127520057Y-131555952D01*
X127520057Y-131555952D02*
X127615295Y-131508333D01*
X127615295Y-131508333D02*
X127758152Y-131508333D01*
X127758152Y-131508333D02*
X127853390Y-131555952D01*
X127853390Y-131555952D02*
X127901009Y-131603571D01*
X127901009Y-131603571D02*
X127948628Y-131698809D01*
X127948628Y-131698809D02*
X127948628Y-132079761D01*
X127901009Y-131079761D02*
X127901009Y-130746428D01*
X128424819Y-130603571D02*
X128424819Y-131079761D01*
X128424819Y-131079761D02*
X127424819Y-131079761D01*
X127424819Y-131079761D02*
X127424819Y-130603571D01*
X127901009Y-129841666D02*
X127901009Y-130174999D01*
X128424819Y-130174999D02*
X127424819Y-130174999D01*
X127424819Y-130174999D02*
X127424819Y-129698809D01*
X127424819Y-129174999D02*
X127662914Y-129174999D01*
X127567676Y-129413094D02*
X127662914Y-129174999D01*
X127662914Y-129174999D02*
X127567676Y-128936904D01*
X127853390Y-129317856D02*
X127662914Y-129174999D01*
X127662914Y-129174999D02*
X127853390Y-129032142D01*
X127424819Y-128413094D02*
X127662914Y-128413094D01*
X127567676Y-128651189D02*
X127662914Y-128413094D01*
X127662914Y-128413094D02*
X127567676Y-128174999D01*
X127853390Y-128555951D02*
X127662914Y-128413094D01*
X127662914Y-128413094D02*
X127853390Y-128270237D01*
X186096666Y-119009819D02*
X185763333Y-118533628D01*
X185525238Y-119009819D02*
X185525238Y-118009819D01*
X185525238Y-118009819D02*
X185906190Y-118009819D01*
X185906190Y-118009819D02*
X186001428Y-118057438D01*
X186001428Y-118057438D02*
X186049047Y-118105057D01*
X186049047Y-118105057D02*
X186096666Y-118200295D01*
X186096666Y-118200295D02*
X186096666Y-118343152D01*
X186096666Y-118343152D02*
X186049047Y-118438390D01*
X186049047Y-118438390D02*
X186001428Y-118486009D01*
X186001428Y-118486009D02*
X185906190Y-118533628D01*
X185906190Y-118533628D02*
X185525238Y-118533628D01*
X186525238Y-118486009D02*
X186858571Y-118486009D01*
X187001428Y-119009819D02*
X186525238Y-119009819D01*
X186525238Y-119009819D02*
X186525238Y-118009819D01*
X186525238Y-118009819D02*
X187001428Y-118009819D01*
X187763333Y-118486009D02*
X187430000Y-118486009D01*
X187430000Y-119009819D02*
X187430000Y-118009819D01*
X187430000Y-118009819D02*
X187906190Y-118009819D01*
X188430000Y-118009819D02*
X188430000Y-118247914D01*
X188191905Y-118152676D02*
X188430000Y-118247914D01*
X188430000Y-118247914D02*
X188668095Y-118152676D01*
X188287143Y-118438390D02*
X188430000Y-118247914D01*
X188430000Y-118247914D02*
X188572857Y-118438390D01*
X189191905Y-118009819D02*
X189191905Y-118247914D01*
X188953810Y-118152676D02*
X189191905Y-118247914D01*
X189191905Y-118247914D02*
X189430000Y-118152676D01*
X189049048Y-118438390D02*
X189191905Y-118247914D01*
X189191905Y-118247914D02*
X189334762Y-118438390D01*
X139131666Y-96134819D02*
X138798333Y-95658628D01*
X138560238Y-96134819D02*
X138560238Y-95134819D01*
X138560238Y-95134819D02*
X138941190Y-95134819D01*
X138941190Y-95134819D02*
X139036428Y-95182438D01*
X139036428Y-95182438D02*
X139084047Y-95230057D01*
X139084047Y-95230057D02*
X139131666Y-95325295D01*
X139131666Y-95325295D02*
X139131666Y-95468152D01*
X139131666Y-95468152D02*
X139084047Y-95563390D01*
X139084047Y-95563390D02*
X139036428Y-95611009D01*
X139036428Y-95611009D02*
X138941190Y-95658628D01*
X138941190Y-95658628D02*
X138560238Y-95658628D01*
X139560238Y-95611009D02*
X139893571Y-95611009D01*
X140036428Y-96134819D02*
X139560238Y-96134819D01*
X139560238Y-96134819D02*
X139560238Y-95134819D01*
X139560238Y-95134819D02*
X140036428Y-95134819D01*
X140798333Y-95611009D02*
X140465000Y-95611009D01*
X140465000Y-96134819D02*
X140465000Y-95134819D01*
X140465000Y-95134819D02*
X140941190Y-95134819D01*
X141465000Y-95134819D02*
X141465000Y-95372914D01*
X141226905Y-95277676D02*
X141465000Y-95372914D01*
X141465000Y-95372914D02*
X141703095Y-95277676D01*
X141322143Y-95563390D02*
X141465000Y-95372914D01*
X141465000Y-95372914D02*
X141607857Y-95563390D01*
X142226905Y-95134819D02*
X142226905Y-95372914D01*
X141988810Y-95277676D02*
X142226905Y-95372914D01*
X142226905Y-95372914D02*
X142465000Y-95277676D01*
X142084048Y-95563390D02*
X142226905Y-95372914D01*
X142226905Y-95372914D02*
X142369762Y-95563390D01*
X145456666Y-65629819D02*
X145123333Y-65153628D01*
X144885238Y-65629819D02*
X144885238Y-64629819D01*
X144885238Y-64629819D02*
X145266190Y-64629819D01*
X145266190Y-64629819D02*
X145361428Y-64677438D01*
X145361428Y-64677438D02*
X145409047Y-64725057D01*
X145409047Y-64725057D02*
X145456666Y-64820295D01*
X145456666Y-64820295D02*
X145456666Y-64963152D01*
X145456666Y-64963152D02*
X145409047Y-65058390D01*
X145409047Y-65058390D02*
X145361428Y-65106009D01*
X145361428Y-65106009D02*
X145266190Y-65153628D01*
X145266190Y-65153628D02*
X144885238Y-65153628D01*
X145885238Y-65106009D02*
X146218571Y-65106009D01*
X146361428Y-65629819D02*
X145885238Y-65629819D01*
X145885238Y-65629819D02*
X145885238Y-64629819D01*
X145885238Y-64629819D02*
X146361428Y-64629819D01*
X147123333Y-65106009D02*
X146790000Y-65106009D01*
X146790000Y-65629819D02*
X146790000Y-64629819D01*
X146790000Y-64629819D02*
X147266190Y-64629819D01*
X147790000Y-64629819D02*
X147790000Y-64867914D01*
X147551905Y-64772676D02*
X147790000Y-64867914D01*
X147790000Y-64867914D02*
X148028095Y-64772676D01*
X147647143Y-65058390D02*
X147790000Y-64867914D01*
X147790000Y-64867914D02*
X147932857Y-65058390D01*
X148551905Y-64629819D02*
X148551905Y-64867914D01*
X148313810Y-64772676D02*
X148551905Y-64867914D01*
X148551905Y-64867914D02*
X148790000Y-64772676D01*
X148409048Y-65058390D02*
X148551905Y-64867914D01*
X148551905Y-64867914D02*
X148694762Y-65058390D01*
X104816666Y-119009819D02*
X104483333Y-118533628D01*
X104245238Y-119009819D02*
X104245238Y-118009819D01*
X104245238Y-118009819D02*
X104626190Y-118009819D01*
X104626190Y-118009819D02*
X104721428Y-118057438D01*
X104721428Y-118057438D02*
X104769047Y-118105057D01*
X104769047Y-118105057D02*
X104816666Y-118200295D01*
X104816666Y-118200295D02*
X104816666Y-118343152D01*
X104816666Y-118343152D02*
X104769047Y-118438390D01*
X104769047Y-118438390D02*
X104721428Y-118486009D01*
X104721428Y-118486009D02*
X104626190Y-118533628D01*
X104626190Y-118533628D02*
X104245238Y-118533628D01*
X105245238Y-118486009D02*
X105578571Y-118486009D01*
X105721428Y-119009819D02*
X105245238Y-119009819D01*
X105245238Y-119009819D02*
X105245238Y-118009819D01*
X105245238Y-118009819D02*
X105721428Y-118009819D01*
X106483333Y-118486009D02*
X106150000Y-118486009D01*
X106150000Y-119009819D02*
X106150000Y-118009819D01*
X106150000Y-118009819D02*
X106626190Y-118009819D01*
X107150000Y-118009819D02*
X107150000Y-118247914D01*
X106911905Y-118152676D02*
X107150000Y-118247914D01*
X107150000Y-118247914D02*
X107388095Y-118152676D01*
X107007143Y-118438390D02*
X107150000Y-118247914D01*
X107150000Y-118247914D02*
X107292857Y-118438390D01*
X107911905Y-118009819D02*
X107911905Y-118247914D01*
X107673810Y-118152676D02*
X107911905Y-118247914D01*
X107911905Y-118247914D02*
X108150000Y-118152676D01*
X107769048Y-118438390D02*
X107911905Y-118247914D01*
X107911905Y-118247914D02*
X108054762Y-118438390D01*
X166064819Y-131488333D02*
X165588628Y-131821666D01*
X166064819Y-132059761D02*
X165064819Y-132059761D01*
X165064819Y-132059761D02*
X165064819Y-131678809D01*
X165064819Y-131678809D02*
X165112438Y-131583571D01*
X165112438Y-131583571D02*
X165160057Y-131535952D01*
X165160057Y-131535952D02*
X165255295Y-131488333D01*
X165255295Y-131488333D02*
X165398152Y-131488333D01*
X165398152Y-131488333D02*
X165493390Y-131535952D01*
X165493390Y-131535952D02*
X165541009Y-131583571D01*
X165541009Y-131583571D02*
X165588628Y-131678809D01*
X165588628Y-131678809D02*
X165588628Y-132059761D01*
X165541009Y-131059761D02*
X165541009Y-130726428D01*
X166064819Y-130583571D02*
X166064819Y-131059761D01*
X166064819Y-131059761D02*
X165064819Y-131059761D01*
X165064819Y-131059761D02*
X165064819Y-130583571D01*
X165541009Y-129821666D02*
X165541009Y-130154999D01*
X166064819Y-130154999D02*
X165064819Y-130154999D01*
X165064819Y-130154999D02*
X165064819Y-129678809D01*
X165064819Y-129154999D02*
X165302914Y-129154999D01*
X165207676Y-129393094D02*
X165302914Y-129154999D01*
X165302914Y-129154999D02*
X165207676Y-128916904D01*
X165493390Y-129297856D02*
X165302914Y-129154999D01*
X165302914Y-129154999D02*
X165493390Y-129012142D01*
X165064819Y-128393094D02*
X165302914Y-128393094D01*
X165207676Y-128631189D02*
X165302914Y-128393094D01*
X165302914Y-128393094D02*
X165207676Y-128154999D01*
X165493390Y-128535951D02*
X165302914Y-128393094D01*
X165302914Y-128393094D02*
X165493390Y-128250237D01*
X186096666Y-64399819D02*
X185763333Y-63923628D01*
X185525238Y-64399819D02*
X185525238Y-63399819D01*
X185525238Y-63399819D02*
X185906190Y-63399819D01*
X185906190Y-63399819D02*
X186001428Y-63447438D01*
X186001428Y-63447438D02*
X186049047Y-63495057D01*
X186049047Y-63495057D02*
X186096666Y-63590295D01*
X186096666Y-63590295D02*
X186096666Y-63733152D01*
X186096666Y-63733152D02*
X186049047Y-63828390D01*
X186049047Y-63828390D02*
X186001428Y-63876009D01*
X186001428Y-63876009D02*
X185906190Y-63923628D01*
X185906190Y-63923628D02*
X185525238Y-63923628D01*
X186525238Y-63876009D02*
X186858571Y-63876009D01*
X187001428Y-64399819D02*
X186525238Y-64399819D01*
X186525238Y-64399819D02*
X186525238Y-63399819D01*
X186525238Y-63399819D02*
X187001428Y-63399819D01*
X187763333Y-63876009D02*
X187430000Y-63876009D01*
X187430000Y-64399819D02*
X187430000Y-63399819D01*
X187430000Y-63399819D02*
X187906190Y-63399819D01*
X188430000Y-63399819D02*
X188430000Y-63637914D01*
X188191905Y-63542676D02*
X188430000Y-63637914D01*
X188430000Y-63637914D02*
X188668095Y-63542676D01*
X188287143Y-63828390D02*
X188430000Y-63637914D01*
X188430000Y-63637914D02*
X188572857Y-63828390D01*
X189191905Y-63399819D02*
X189191905Y-63637914D01*
X188953810Y-63542676D02*
X189191905Y-63637914D01*
X189191905Y-63637914D02*
X189430000Y-63542676D01*
X189049048Y-63828390D02*
X189191905Y-63637914D01*
X189191905Y-63637914D02*
X189334762Y-63828390D01*
X151831666Y-96134819D02*
X151498333Y-95658628D01*
X151260238Y-96134819D02*
X151260238Y-95134819D01*
X151260238Y-95134819D02*
X151641190Y-95134819D01*
X151641190Y-95134819D02*
X151736428Y-95182438D01*
X151736428Y-95182438D02*
X151784047Y-95230057D01*
X151784047Y-95230057D02*
X151831666Y-95325295D01*
X151831666Y-95325295D02*
X151831666Y-95468152D01*
X151831666Y-95468152D02*
X151784047Y-95563390D01*
X151784047Y-95563390D02*
X151736428Y-95611009D01*
X151736428Y-95611009D02*
X151641190Y-95658628D01*
X151641190Y-95658628D02*
X151260238Y-95658628D01*
X152260238Y-95611009D02*
X152593571Y-95611009D01*
X152736428Y-96134819D02*
X152260238Y-96134819D01*
X152260238Y-96134819D02*
X152260238Y-95134819D01*
X152260238Y-95134819D02*
X152736428Y-95134819D01*
X153498333Y-95611009D02*
X153165000Y-95611009D01*
X153165000Y-96134819D02*
X153165000Y-95134819D01*
X153165000Y-95134819D02*
X153641190Y-95134819D01*
X154165000Y-95134819D02*
X154165000Y-95372914D01*
X153926905Y-95277676D02*
X154165000Y-95372914D01*
X154165000Y-95372914D02*
X154403095Y-95277676D01*
X154022143Y-95563390D02*
X154165000Y-95372914D01*
X154165000Y-95372914D02*
X154307857Y-95563390D01*
X154926905Y-95134819D02*
X154926905Y-95372914D01*
X154688810Y-95277676D02*
X154926905Y-95372914D01*
X154926905Y-95372914D02*
X155165000Y-95277676D01*
X154784048Y-95563390D02*
X154926905Y-95372914D01*
X154926905Y-95372914D02*
X155069762Y-95563390D01*
D11*
%TO.C,REF\u002A\u002A*%
X106090000Y-127575000D02*
X106090000Y-132775000D01*
X123930000Y-130175000D02*
X123930000Y-132775000D01*
X123930000Y-132775000D02*
X106090000Y-132775000D01*
X126530000Y-127575000D02*
X106090000Y-127575000D01*
X126530000Y-127575000D02*
X126530000Y-130175000D01*
X126530000Y-130175000D02*
X123930000Y-130175000D01*
X126530000Y-131445000D02*
X126530000Y-132775000D01*
X126530000Y-132775000D02*
X125200000Y-132775000D01*
X139135000Y-99720000D02*
X139135000Y-112480000D01*
X139135000Y-99720000D02*
X141795000Y-99720000D01*
X139135000Y-112480000D02*
X141795000Y-112480000D01*
X140465000Y-97120000D02*
X141795000Y-97120000D01*
X141795000Y-97120000D02*
X141795000Y-98450000D01*
X141795000Y-99720000D02*
X141795000Y-112480000D01*
X144190000Y-66615000D02*
X144190000Y-87055000D01*
X144190000Y-66615000D02*
X146790000Y-66615000D01*
X144190000Y-87055000D02*
X149390000Y-87055000D01*
X146790000Y-66615000D02*
X146790000Y-69215000D01*
X146790000Y-69215000D02*
X149390000Y-69215000D01*
X148060000Y-66615000D02*
X149390000Y-66615000D01*
X149390000Y-66615000D02*
X149390000Y-67945000D01*
X149390000Y-69215000D02*
X149390000Y-87055000D01*
X167050000Y-127555000D02*
X168380000Y-127555000D01*
X167050000Y-128885000D02*
X167050000Y-127555000D01*
X167050000Y-130155000D02*
X169650000Y-130155000D01*
X167050000Y-132755000D02*
X167050000Y-130155000D01*
X167050000Y-132755000D02*
X187490000Y-132755000D01*
X169650000Y-127555000D02*
X187490000Y-127555000D01*
X169650000Y-130155000D02*
X169650000Y-127555000D01*
X187490000Y-132755000D02*
X187490000Y-127555000D01*
X151835000Y-99720000D02*
X151835000Y-112480000D01*
X151835000Y-99720000D02*
X154495000Y-99720000D01*
X151835000Y-112480000D02*
X154495000Y-112480000D01*
X153165000Y-97120000D02*
X154495000Y-97120000D01*
X154495000Y-97120000D02*
X154495000Y-98450000D01*
X154495000Y-99720000D02*
X154495000Y-112480000D01*
%TD*%
%LPC*%
D12*
%TO.C,REF\u002A\u002A*%
X106150000Y-67945000D03*
%TD*%
D13*
%TO.C,REF\u002A\u002A*%
X125200000Y-131445000D03*
D14*
X125200000Y-128905000D03*
X122660000Y-131445000D03*
X122660000Y-128905000D03*
X120120000Y-131445000D03*
X120120000Y-128905000D03*
X117580000Y-131445000D03*
X117580000Y-128905000D03*
X115040000Y-131445000D03*
X115040000Y-128905000D03*
X112500000Y-131445000D03*
X112500000Y-128905000D03*
X109960000Y-131445000D03*
X109960000Y-128905000D03*
X107420000Y-131445000D03*
X107420000Y-128905000D03*
%TD*%
D12*
%TO.C,REF\u002A\u002A*%
X187430000Y-122555000D03*
%TD*%
D13*
%TO.C,REF\u002A\u002A*%
X140465000Y-98450000D03*
D14*
X140465000Y-100990000D03*
X140465000Y-103530000D03*
X140465000Y-106070000D03*
X140465000Y-108610000D03*
X140465000Y-111150000D03*
%TD*%
D13*
%TO.C,REF\u002A\u002A*%
X148060000Y-67945000D03*
D14*
X145520000Y-67945000D03*
X148060000Y-70485000D03*
X145520000Y-70485000D03*
X148060000Y-73025000D03*
X145520000Y-73025000D03*
X148060000Y-75565000D03*
X145520000Y-75565000D03*
X148060000Y-78105000D03*
X145520000Y-78105000D03*
X148060000Y-80645000D03*
X145520000Y-80645000D03*
X148060000Y-83185000D03*
X145520000Y-83185000D03*
X148060000Y-85725000D03*
X145520000Y-85725000D03*
%TD*%
D12*
%TO.C,REF\u002A\u002A*%
X106150000Y-122555000D03*
%TD*%
D13*
%TO.C,REF\u002A\u002A*%
X168380000Y-128885000D03*
D14*
X168380000Y-131425000D03*
X170920000Y-128885000D03*
X170920000Y-131425000D03*
X173460000Y-128885000D03*
X173460000Y-131425000D03*
X176000000Y-128885000D03*
X176000000Y-131425000D03*
X178540000Y-128885000D03*
X178540000Y-131425000D03*
X181080000Y-128885000D03*
X181080000Y-131425000D03*
X183620000Y-128885000D03*
X183620000Y-131425000D03*
X186160000Y-128885000D03*
X186160000Y-131425000D03*
%TD*%
D12*
%TO.C,REF\u002A\u002A*%
X187430000Y-67945000D03*
%TD*%
D13*
%TO.C,REF\u002A\u002A*%
X153165000Y-98450000D03*
D14*
X153165000Y-100990000D03*
X153165000Y-103530000D03*
X153165000Y-106070000D03*
X153165000Y-108610000D03*
X153165000Y-111150000D03*
%TD*%
D13*
%TO.C,REF\u002A\u002A*%
X115020000Y-74305000D03*
D14*
X117560000Y-74305000D03*
X115020000Y-76845000D03*
X117560000Y-76845000D03*
X115020000Y-79385000D03*
X117560000Y-79385000D03*
X115020000Y-81925000D03*
X117560000Y-81925000D03*
X115020000Y-84465000D03*
X117560000Y-84465000D03*
X115020000Y-87005000D03*
X117560000Y-87005000D03*
X115020000Y-89545000D03*
X117560000Y-89545000D03*
X115020000Y-92085000D03*
X117560000Y-92085000D03*
X115020000Y-94625000D03*
X117560000Y-94625000D03*
X115020000Y-97165000D03*
X117560000Y-97165000D03*
X115020000Y-99705000D03*
X117560000Y-99705000D03*
X115020000Y-102245000D03*
X117560000Y-102245000D03*
X115020000Y-104785000D03*
X117560000Y-104785000D03*
X115020000Y-107325000D03*
X117560000Y-107325000D03*
X115020000Y-109865000D03*
X117560000Y-109865000D03*
X115020000Y-112405000D03*
X117560000Y-112405000D03*
X115020000Y-114945000D03*
X117560000Y-114945000D03*
X115020000Y-117485000D03*
X117560000Y-117485000D03*
X115020000Y-120025000D03*
X117560000Y-120025000D03*
%TD*%
D13*
%TO.C,REF\u002A\u002A*%
X153140000Y-128905000D03*
D14*
X153140000Y-131445000D03*
%TD*%
D13*
%TO.C,REF\u002A\u002A*%
X146790000Y-128905000D03*
D14*
X146790000Y-131445000D03*
%TD*%
D13*
%TO.C,REF\u002A\u002A*%
X140440000Y-128905000D03*
D14*
X140440000Y-131445000D03*
%TD*%
D13*
%TO.C,REF\u002A\u002A*%
X175980000Y-74305000D03*
D14*
X178520000Y-74305000D03*
X175980000Y-76845000D03*
X178520000Y-76845000D03*
X175980000Y-79385000D03*
X178520000Y-79385000D03*
X175980000Y-81925000D03*
X178520000Y-81925000D03*
X175980000Y-84465000D03*
X178520000Y-84465000D03*
X175980000Y-87005000D03*
X178520000Y-87005000D03*
X175980000Y-89545000D03*
X178520000Y-89545000D03*
X175980000Y-92085000D03*
X178520000Y-92085000D03*
X175980000Y-94625000D03*
X178520000Y-94625000D03*
X175980000Y-97165000D03*
X178520000Y-97165000D03*
X175980000Y-99705000D03*
X178520000Y-99705000D03*
X175980000Y-102245000D03*
X178520000Y-102245000D03*
X175980000Y-104785000D03*
X178520000Y-104785000D03*
X175980000Y-107325000D03*
X178520000Y-107325000D03*
X175980000Y-109865000D03*
X178520000Y-109865000D03*
X175980000Y-112405000D03*
X178520000Y-112405000D03*
X175980000Y-114945000D03*
X178520000Y-114945000D03*
X175980000Y-117485000D03*
X178520000Y-117485000D03*
X175980000Y-120025000D03*
X178520000Y-120025000D03*
%TD*%
%LPD*%
M02*
