%TF.GenerationSoftware,KiCad,Pcbnew,8.0.6*%
%TF.CreationDate,2026-05-29T23:41:27-07:00*%
%TF.ProjectId,BottomPCB,426f7474-6f6d-4504-9342-2e6b69636164,rev?*%
%TF.SameCoordinates,Original*%
%TF.FileFunction,Soldermask,Top*%
%TF.FilePolarity,Negative*%
%FSLAX46Y46*%
G04 Gerber Fmt 4.6, Leading zero omitted, Abs format (unit mm)*
G04 Created by KiCad (PCBNEW 8.0.6) date 2026-05-29 23:41:27*
%MOMM*%
%LPD*%
G01*
G04 APERTURE LIST*
%ADD10C,3.000000*%
%ADD11R,1.700000X1.700000*%
%ADD12O,1.700000X1.700000*%
G04 APERTURE END LIST*
D10*
%TO.C,REF\u002A\u002A*%
X106150000Y-67945000D03*
%TD*%
D11*
%TO.C,REF\u002A\u002A*%
X125200000Y-131445000D03*
D12*
X125200000Y-128905000D03*
X122660000Y-131445000D03*
X122660000Y-128905000D03*
X120120000Y-131445000D03*
X120120000Y-128905000D03*
X117580000Y-131445000D03*
X117580000Y-128905000D03*
X115040000Y-131445000D03*
X115040000Y-128905000D03*
X112500000Y-131445000D03*
X112500000Y-128905000D03*
X109960000Y-131445000D03*
X109960000Y-128905000D03*
X107420000Y-131445000D03*
X107420000Y-128905000D03*
%TD*%
D10*
%TO.C,REF\u002A\u002A*%
X187430000Y-122555000D03*
%TD*%
D11*
%TO.C,REF\u002A\u002A*%
X140465000Y-98450000D03*
D12*
X140465000Y-100990000D03*
X140465000Y-103530000D03*
X140465000Y-106070000D03*
X140465000Y-108610000D03*
X140465000Y-111150000D03*
%TD*%
D11*
%TO.C,REF\u002A\u002A*%
X148060000Y-67945000D03*
D12*
X145520000Y-67945000D03*
X148060000Y-70485000D03*
X145520000Y-70485000D03*
X148060000Y-73025000D03*
X145520000Y-73025000D03*
X148060000Y-75565000D03*
X145520000Y-75565000D03*
X148060000Y-78105000D03*
X145520000Y-78105000D03*
X148060000Y-80645000D03*
X145520000Y-80645000D03*
X148060000Y-83185000D03*
X145520000Y-83185000D03*
X148060000Y-85725000D03*
X145520000Y-85725000D03*
%TD*%
D10*
%TO.C,REF\u002A\u002A*%
X106150000Y-122555000D03*
%TD*%
D11*
%TO.C,REF\u002A\u002A*%
X168380000Y-128885000D03*
D12*
X168380000Y-131425000D03*
X170920000Y-128885000D03*
X170920000Y-131425000D03*
X173460000Y-128885000D03*
X173460000Y-131425000D03*
X176000000Y-128885000D03*
X176000000Y-131425000D03*
X178540000Y-128885000D03*
X178540000Y-131425000D03*
X181080000Y-128885000D03*
X181080000Y-131425000D03*
X183620000Y-128885000D03*
X183620000Y-131425000D03*
X186160000Y-128885000D03*
X186160000Y-131425000D03*
%TD*%
D10*
%TO.C,REF\u002A\u002A*%
X187430000Y-67945000D03*
%TD*%
D11*
%TO.C,REF\u002A\u002A*%
X153165000Y-98450000D03*
D12*
X153165000Y-100990000D03*
X153165000Y-103530000D03*
X153165000Y-106070000D03*
X153165000Y-108610000D03*
X153165000Y-111150000D03*
%TD*%
D11*
%TO.C,REF\u002A\u002A*%
X115020000Y-74305000D03*
D12*
X117560000Y-74305000D03*
X115020000Y-76845000D03*
X117560000Y-76845000D03*
X115020000Y-79385000D03*
X117560000Y-79385000D03*
X115020000Y-81925000D03*
X117560000Y-81925000D03*
X115020000Y-84465000D03*
X117560000Y-84465000D03*
X115020000Y-87005000D03*
X117560000Y-87005000D03*
X115020000Y-89545000D03*
X117560000Y-89545000D03*
X115020000Y-92085000D03*
X117560000Y-92085000D03*
X115020000Y-94625000D03*
X117560000Y-94625000D03*
X115020000Y-97165000D03*
X117560000Y-97165000D03*
X115020000Y-99705000D03*
X117560000Y-99705000D03*
X115020000Y-102245000D03*
X117560000Y-102245000D03*
X115020000Y-104785000D03*
X117560000Y-104785000D03*
X115020000Y-107325000D03*
X117560000Y-107325000D03*
X115020000Y-109865000D03*
X117560000Y-109865000D03*
X115020000Y-112405000D03*
X117560000Y-112405000D03*
X115020000Y-114945000D03*
X117560000Y-114945000D03*
X115020000Y-117485000D03*
X117560000Y-117485000D03*
X115020000Y-120025000D03*
X117560000Y-120025000D03*
%TD*%
D11*
%TO.C,REF\u002A\u002A*%
X153140000Y-128905000D03*
D12*
X153140000Y-131445000D03*
%TD*%
D11*
%TO.C,REF\u002A\u002A*%
X146790000Y-128905000D03*
D12*
X146790000Y-131445000D03*
%TD*%
D11*
%TO.C,REF\u002A\u002A*%
X140440000Y-128905000D03*
D12*
X140440000Y-131445000D03*
%TD*%
D11*
%TO.C,REF\u002A\u002A*%
X175980000Y-74305000D03*
D12*
X178520000Y-74305000D03*
X175980000Y-76845000D03*
X178520000Y-76845000D03*
X175980000Y-79385000D03*
X178520000Y-79385000D03*
X175980000Y-81925000D03*
X178520000Y-81925000D03*
X175980000Y-84465000D03*
X178520000Y-84465000D03*
X175980000Y-87005000D03*
X178520000Y-87005000D03*
X175980000Y-89545000D03*
X178520000Y-89545000D03*
X175980000Y-92085000D03*
X178520000Y-92085000D03*
X175980000Y-94625000D03*
X178520000Y-94625000D03*
X175980000Y-97165000D03*
X178520000Y-97165000D03*
X175980000Y-99705000D03*
X178520000Y-99705000D03*
X175980000Y-102245000D03*
X178520000Y-102245000D03*
X175980000Y-104785000D03*
X178520000Y-104785000D03*
X175980000Y-107325000D03*
X178520000Y-107325000D03*
X175980000Y-109865000D03*
X178520000Y-109865000D03*
X175980000Y-112405000D03*
X178520000Y-112405000D03*
X175980000Y-114945000D03*
X178520000Y-114945000D03*
X175980000Y-117485000D03*
X178520000Y-117485000D03*
X175980000Y-120025000D03*
X178520000Y-120025000D03*
%TD*%
M02*
