M48
; DRILL file {KiCad 8.0.6} date 2026-05-29T23:41:32-0700
; FORMAT={-:-/ absolute / metric / decimal}
; #@! TF.CreationDate,2026-05-29T23:41:32-07:00
; #@! TF.GenerationSoftware,Kicad,Pcbnew,8.0.6
; #@! TF.FileFunction,MixedPlating,1,2
FMAT,2
METRIC
; #@! TA.AperFunction,Plated,PTH,ComponentDrill
T1C1.000
; #@! TA.AperFunction,NonPlated,NPTH,ComponentDrill
T2C3.000
%
G90
G05
T1
X107.42Y-128.905
X107.42Y-131.445
X109.96Y-128.905
X109.96Y-131.445
X112.5Y-128.905
X112.5Y-131.445
X115.02Y-74.305
X115.02Y-76.845
X115.02Y-79.385
X115.02Y-81.925
X115.02Y-84.465
X115.02Y-87.005
X115.02Y-89.545
X115.02Y-92.085
X115.02Y-94.625
X115.02Y-97.165
X115.02Y-99.705
X115.02Y-102.245
X115.02Y-104.785
X115.02Y-107.325
X115.02Y-109.865
X115.02Y-112.405
X115.02Y-114.945
X115.02Y-117.485
X115.02Y-120.025
X115.04Y-128.905
X115.04Y-131.445
X117.56Y-74.305
X117.56Y-76.845
X117.56Y-79.385
X117.56Y-81.925
X117.56Y-84.465
X117.56Y-87.005
X117.56Y-89.545
X117.56Y-92.085
X117.56Y-94.625
X117.56Y-97.165
X117.56Y-99.705
X117.56Y-102.245
X117.56Y-104.785
X117.56Y-107.325
X117.56Y-109.865
X117.56Y-112.405
X117.56Y-114.945
X117.56Y-117.485
X117.56Y-120.025
X117.58Y-128.905
X117.58Y-131.445
X120.12Y-128.905
X120.12Y-131.445
X122.66Y-128.905
X122.66Y-131.445
X125.2Y-128.905
X125.2Y-131.445
X140.44Y-128.905
X140.44Y-131.445
X140.465Y-98.45
X140.465Y-100.99
X140.465Y-103.53
X140.465Y-106.07
X140.465Y-108.61
X140.465Y-111.15
X145.52Y-67.945
X145.52Y-70.485
X145.52Y-73.025
X145.52Y-75.565
X145.52Y-78.105
X145.52Y-80.645
X145.52Y-83.185
X145.52Y-85.725
X146.79Y-128.905
X146.79Y-131.445
X148.06Y-67.945
X148.06Y-70.485
X148.06Y-73.025
X148.06Y-75.565
X148.06Y-78.105
X148.06Y-80.645
X148.06Y-83.185
X148.06Y-85.725
X153.14Y-128.905
X153.14Y-131.445
X153.165Y-98.45
X153.165Y-100.99
X153.165Y-103.53
X153.165Y-106.07
X153.165Y-108.61
X153.165Y-111.15
X168.38Y-128.885
X168.38Y-131.425
X170.92Y-128.885
X170.92Y-131.425
X173.46Y-128.885
X173.46Y-131.425
X175.98Y-74.305
X175.98Y-76.845
X175.98Y-79.385
X175.98Y-81.925
X175.98Y-84.465
X175.98Y-87.005
X175.98Y-89.545
X175.98Y-92.085
X175.98Y-94.625
X175.98Y-97.165
X175.98Y-99.705
X175.98Y-102.245
X175.98Y-104.785
X175.98Y-107.325
X175.98Y-109.865
X175.98Y-112.405
X175.98Y-114.945
X175.98Y-117.485
X175.98Y-120.025
X176.0Y-128.885
X176.0Y-131.425
X178.52Y-74.305
X178.52Y-76.845
X178.52Y-79.385
X178.52Y-81.925
X178.52Y-84.465
X178.52Y-87.005
X178.52Y-89.545
X178.52Y-92.085
X178.52Y-94.625
X178.52Y-97.165
X178.52Y-99.705
X178.52Y-102.245
X178.52Y-104.785
X178.52Y-107.325
X178.52Y-109.865
X178.52Y-112.405
X178.52Y-114.945
X178.52Y-117.485
X178.52Y-120.025
X178.54Y-128.885
X178.54Y-131.425
X181.08Y-128.885
X181.08Y-131.425
X183.62Y-128.885
X183.62Y-131.425
X186.16Y-128.885
X186.16Y-131.425
T2
X106.15Y-67.945
X106.15Y-122.555
X187.43Y-67.945
X187.43Y-122.555
M30
