%TF.GenerationSoftware,KiCad,Pcbnew,8.0.6*%
%TF.CreationDate,2026-05-29T23:41:33-07:00*%
%TF.ProjectId,BottomPCB,426f7474-6f6d-4504-9342-2e6b69636164,rev?*%
%TF.SameCoordinates,Original*%
%TF.FileFunction,Drillmap*%
%TF.FilePolarity,Positive*%
%FSLAX45Y45*%
G04 Gerber Fmt 4.5, Leading zero omitted, Abs format (unit mm)*
G04 Created by KiCad (PCBNEW 8.0.6) date 2026-05-29 23:41:33*
%MOMM*%
%LPD*%
G01*
G04 APERTURE LIST*
%ADD10C,0.050000*%
%ADD11C,0.200000*%
%ADD12C,0.100000*%
%ADD13C,0.300000*%
G04 APERTURE END LIST*
D10*
X10107000Y-6286500D02*
X19251000Y-6286500D01*
X19251000Y-13525500D01*
X10107000Y-13525500D01*
X10107000Y-6286500D01*
D11*
D12*
X10692000Y-12840500D02*
X10792000Y-12940500D01*
X10792000Y-12840500D02*
X10692000Y-12940500D01*
X10692000Y-13094500D02*
X10792000Y-13194500D01*
X10792000Y-13094500D02*
X10692000Y-13194500D01*
X10946000Y-12840500D02*
X11046000Y-12940500D01*
X11046000Y-12840500D02*
X10946000Y-12940500D01*
X10946000Y-13094500D02*
X11046000Y-13194500D01*
X11046000Y-13094500D02*
X10946000Y-13194500D01*
X11200000Y-12840500D02*
X11300000Y-12940500D01*
X11300000Y-12840500D02*
X11200000Y-12940500D01*
X11200000Y-13094500D02*
X11300000Y-13194500D01*
X11300000Y-13094500D02*
X11200000Y-13194500D01*
X11452000Y-7380500D02*
X11552000Y-7480500D01*
X11552000Y-7380500D02*
X11452000Y-7480500D01*
X11452000Y-7634500D02*
X11552000Y-7734500D01*
X11552000Y-7634500D02*
X11452000Y-7734500D01*
X11452000Y-7888500D02*
X11552000Y-7988500D01*
X11552000Y-7888500D02*
X11452000Y-7988500D01*
X11452000Y-8142500D02*
X11552000Y-8242500D01*
X11552000Y-8142500D02*
X11452000Y-8242500D01*
X11452000Y-8396500D02*
X11552000Y-8496500D01*
X11552000Y-8396500D02*
X11452000Y-8496500D01*
X11452000Y-8650500D02*
X11552000Y-8750500D01*
X11552000Y-8650500D02*
X11452000Y-8750500D01*
X11452000Y-8904500D02*
X11552000Y-9004500D01*
X11552000Y-8904500D02*
X11452000Y-9004500D01*
X11452000Y-9158500D02*
X11552000Y-9258500D01*
X11552000Y-9158500D02*
X11452000Y-9258500D01*
X11452000Y-9412500D02*
X11552000Y-9512500D01*
X11552000Y-9412500D02*
X11452000Y-9512500D01*
X11452000Y-9666500D02*
X11552000Y-9766500D01*
X11552000Y-9666500D02*
X11452000Y-9766500D01*
X11452000Y-9920500D02*
X11552000Y-10020500D01*
X11552000Y-9920500D02*
X11452000Y-10020500D01*
X11452000Y-10174500D02*
X11552000Y-10274500D01*
X11552000Y-10174500D02*
X11452000Y-10274500D01*
X11452000Y-10428500D02*
X11552000Y-10528500D01*
X11552000Y-10428500D02*
X11452000Y-10528500D01*
X11452000Y-10682500D02*
X11552000Y-10782500D01*
X11552000Y-10682500D02*
X11452000Y-10782500D01*
X11452000Y-10936500D02*
X11552000Y-11036500D01*
X11552000Y-10936500D02*
X11452000Y-11036500D01*
X11452000Y-11190500D02*
X11552000Y-11290500D01*
X11552000Y-11190500D02*
X11452000Y-11290500D01*
X11452000Y-11444500D02*
X11552000Y-11544500D01*
X11552000Y-11444500D02*
X11452000Y-11544500D01*
X11452000Y-11698500D02*
X11552000Y-11798500D01*
X11552000Y-11698500D02*
X11452000Y-11798500D01*
X11452000Y-11952500D02*
X11552000Y-12052500D01*
X11552000Y-11952500D02*
X11452000Y-12052500D01*
X11454000Y-12840500D02*
X11554000Y-12940500D01*
X11554000Y-12840500D02*
X11454000Y-12940500D01*
X11454000Y-13094500D02*
X11554000Y-13194500D01*
X11554000Y-13094500D02*
X11454000Y-13194500D01*
X11706000Y-7380500D02*
X11806000Y-7480500D01*
X11806000Y-7380500D02*
X11706000Y-7480500D01*
X11706000Y-7634500D02*
X11806000Y-7734500D01*
X11806000Y-7634500D02*
X11706000Y-7734500D01*
X11706000Y-7888500D02*
X11806000Y-7988500D01*
X11806000Y-7888500D02*
X11706000Y-7988500D01*
X11706000Y-8142500D02*
X11806000Y-8242500D01*
X11806000Y-8142500D02*
X11706000Y-8242500D01*
X11706000Y-8396500D02*
X11806000Y-8496500D01*
X11806000Y-8396500D02*
X11706000Y-8496500D01*
X11706000Y-8650500D02*
X11806000Y-8750500D01*
X11806000Y-8650500D02*
X11706000Y-8750500D01*
X11706000Y-8904500D02*
X11806000Y-9004500D01*
X11806000Y-8904500D02*
X11706000Y-9004500D01*
X11706000Y-9158500D02*
X11806000Y-9258500D01*
X11806000Y-9158500D02*
X11706000Y-9258500D01*
X11706000Y-9412500D02*
X11806000Y-9512500D01*
X11806000Y-9412500D02*
X11706000Y-9512500D01*
X11706000Y-9666500D02*
X11806000Y-9766500D01*
X11806000Y-9666500D02*
X11706000Y-9766500D01*
X11706000Y-9920500D02*
X11806000Y-10020500D01*
X11806000Y-9920500D02*
X11706000Y-10020500D01*
X11706000Y-10174500D02*
X11806000Y-10274500D01*
X11806000Y-10174500D02*
X11706000Y-10274500D01*
X11706000Y-10428500D02*
X11806000Y-10528500D01*
X11806000Y-10428500D02*
X11706000Y-10528500D01*
X11706000Y-10682500D02*
X11806000Y-10782500D01*
X11806000Y-10682500D02*
X11706000Y-10782500D01*
X11706000Y-10936500D02*
X11806000Y-11036500D01*
X11806000Y-10936500D02*
X11706000Y-11036500D01*
X11706000Y-11190500D02*
X11806000Y-11290500D01*
X11806000Y-11190500D02*
X11706000Y-11290500D01*
X11706000Y-11444500D02*
X11806000Y-11544500D01*
X11806000Y-11444500D02*
X11706000Y-11544500D01*
X11706000Y-11698500D02*
X11806000Y-11798500D01*
X11806000Y-11698500D02*
X11706000Y-11798500D01*
X11706000Y-11952500D02*
X11806000Y-12052500D01*
X11806000Y-11952500D02*
X11706000Y-12052500D01*
X11708000Y-12840500D02*
X11808000Y-12940500D01*
X11808000Y-12840500D02*
X11708000Y-12940500D01*
X11708000Y-13094500D02*
X11808000Y-13194500D01*
X11808000Y-13094500D02*
X11708000Y-13194500D01*
X11962000Y-12840500D02*
X12062000Y-12940500D01*
X12062000Y-12840500D02*
X11962000Y-12940500D01*
X11962000Y-13094500D02*
X12062000Y-13194500D01*
X12062000Y-13094500D02*
X11962000Y-13194500D01*
X12216000Y-12840500D02*
X12316000Y-12940500D01*
X12316000Y-12840500D02*
X12216000Y-12940500D01*
X12216000Y-13094500D02*
X12316000Y-13194500D01*
X12316000Y-13094500D02*
X12216000Y-13194500D01*
X12470000Y-12840500D02*
X12570000Y-12940500D01*
X12570000Y-12840500D02*
X12470000Y-12940500D01*
X12470000Y-13094500D02*
X12570000Y-13194500D01*
X12570000Y-13094500D02*
X12470000Y-13194500D01*
X13994000Y-12840500D02*
X14094000Y-12940500D01*
X14094000Y-12840500D02*
X13994000Y-12940500D01*
X13994000Y-13094500D02*
X14094000Y-13194500D01*
X14094000Y-13094500D02*
X13994000Y-13194500D01*
X13996500Y-9795000D02*
X14096500Y-9895000D01*
X14096500Y-9795000D02*
X13996500Y-9895000D01*
X13996500Y-10049000D02*
X14096500Y-10149000D01*
X14096500Y-10049000D02*
X13996500Y-10149000D01*
X13996500Y-10303000D02*
X14096500Y-10403000D01*
X14096500Y-10303000D02*
X13996500Y-10403000D01*
X13996500Y-10557000D02*
X14096500Y-10657000D01*
X14096500Y-10557000D02*
X13996500Y-10657000D01*
X13996500Y-10811000D02*
X14096500Y-10911000D01*
X14096500Y-10811000D02*
X13996500Y-10911000D01*
X13996500Y-11065000D02*
X14096500Y-11165000D01*
X14096500Y-11065000D02*
X13996500Y-11165000D01*
X14502000Y-6744500D02*
X14602000Y-6844500D01*
X14602000Y-6744500D02*
X14502000Y-6844500D01*
X14502000Y-6998500D02*
X14602000Y-7098500D01*
X14602000Y-6998500D02*
X14502000Y-7098500D01*
X14502000Y-7252500D02*
X14602000Y-7352500D01*
X14602000Y-7252500D02*
X14502000Y-7352500D01*
X14502000Y-7506500D02*
X14602000Y-7606500D01*
X14602000Y-7506500D02*
X14502000Y-7606500D01*
X14502000Y-7760500D02*
X14602000Y-7860500D01*
X14602000Y-7760500D02*
X14502000Y-7860500D01*
X14502000Y-8014500D02*
X14602000Y-8114500D01*
X14602000Y-8014500D02*
X14502000Y-8114500D01*
X14502000Y-8268500D02*
X14602000Y-8368500D01*
X14602000Y-8268500D02*
X14502000Y-8368500D01*
X14502000Y-8522500D02*
X14602000Y-8622500D01*
X14602000Y-8522500D02*
X14502000Y-8622500D01*
X14629000Y-12840500D02*
X14729000Y-12940500D01*
X14729000Y-12840500D02*
X14629000Y-12940500D01*
X14629000Y-13094500D02*
X14729000Y-13194500D01*
X14729000Y-13094500D02*
X14629000Y-13194500D01*
X14756000Y-6744500D02*
X14856000Y-6844500D01*
X14856000Y-6744500D02*
X14756000Y-6844500D01*
X14756000Y-6998500D02*
X14856000Y-7098500D01*
X14856000Y-6998500D02*
X14756000Y-7098500D01*
X14756000Y-7252500D02*
X14856000Y-7352500D01*
X14856000Y-7252500D02*
X14756000Y-7352500D01*
X14756000Y-7506500D02*
X14856000Y-7606500D01*
X14856000Y-7506500D02*
X14756000Y-7606500D01*
X14756000Y-7760500D02*
X14856000Y-7860500D01*
X14856000Y-7760500D02*
X14756000Y-7860500D01*
X14756000Y-8014500D02*
X14856000Y-8114500D01*
X14856000Y-8014500D02*
X14756000Y-8114500D01*
X14756000Y-8268500D02*
X14856000Y-8368500D01*
X14856000Y-8268500D02*
X14756000Y-8368500D01*
X14756000Y-8522500D02*
X14856000Y-8622500D01*
X14856000Y-8522500D02*
X14756000Y-8622500D01*
X15264000Y-12840500D02*
X15364000Y-12940500D01*
X15364000Y-12840500D02*
X15264000Y-12940500D01*
X15264000Y-13094500D02*
X15364000Y-13194500D01*
X15364000Y-13094500D02*
X15264000Y-13194500D01*
X15266500Y-9795000D02*
X15366500Y-9895000D01*
X15366500Y-9795000D02*
X15266500Y-9895000D01*
X15266500Y-10049000D02*
X15366500Y-10149000D01*
X15366500Y-10049000D02*
X15266500Y-10149000D01*
X15266500Y-10303000D02*
X15366500Y-10403000D01*
X15366500Y-10303000D02*
X15266500Y-10403000D01*
X15266500Y-10557000D02*
X15366500Y-10657000D01*
X15366500Y-10557000D02*
X15266500Y-10657000D01*
X15266500Y-10811000D02*
X15366500Y-10911000D01*
X15366500Y-10811000D02*
X15266500Y-10911000D01*
X15266500Y-11065000D02*
X15366500Y-11165000D01*
X15366500Y-11065000D02*
X15266500Y-11165000D01*
X16788000Y-12838500D02*
X16888000Y-12938500D01*
X16888000Y-12838500D02*
X16788000Y-12938500D01*
X16788000Y-13092500D02*
X16888000Y-13192500D01*
X16888000Y-13092500D02*
X16788000Y-13192500D01*
X17042000Y-12838500D02*
X17142000Y-12938500D01*
X17142000Y-12838500D02*
X17042000Y-12938500D01*
X17042000Y-13092500D02*
X17142000Y-13192500D01*
X17142000Y-13092500D02*
X17042000Y-13192500D01*
X17296000Y-12838500D02*
X17396000Y-12938500D01*
X17396000Y-12838500D02*
X17296000Y-12938500D01*
X17296000Y-13092500D02*
X17396000Y-13192500D01*
X17396000Y-13092500D02*
X17296000Y-13192500D01*
X17548000Y-7380500D02*
X17648000Y-7480500D01*
X17648000Y-7380500D02*
X17548000Y-7480500D01*
X17548000Y-7634500D02*
X17648000Y-7734500D01*
X17648000Y-7634500D02*
X17548000Y-7734500D01*
X17548000Y-7888500D02*
X17648000Y-7988500D01*
X17648000Y-7888500D02*
X17548000Y-7988500D01*
X17548000Y-8142500D02*
X17648000Y-8242500D01*
X17648000Y-8142500D02*
X17548000Y-8242500D01*
X17548000Y-8396500D02*
X17648000Y-8496500D01*
X17648000Y-8396500D02*
X17548000Y-8496500D01*
X17548000Y-8650500D02*
X17648000Y-8750500D01*
X17648000Y-8650500D02*
X17548000Y-8750500D01*
X17548000Y-8904500D02*
X17648000Y-9004500D01*
X17648000Y-8904500D02*
X17548000Y-9004500D01*
X17548000Y-9158500D02*
X17648000Y-9258500D01*
X17648000Y-9158500D02*
X17548000Y-9258500D01*
X17548000Y-9412500D02*
X17648000Y-9512500D01*
X17648000Y-9412500D02*
X17548000Y-9512500D01*
X17548000Y-9666500D02*
X17648000Y-9766500D01*
X17648000Y-9666500D02*
X17548000Y-9766500D01*
X17548000Y-9920500D02*
X17648000Y-10020500D01*
X17648000Y-9920500D02*
X17548000Y-10020500D01*
X17548000Y-10174500D02*
X17648000Y-10274500D01*
X17648000Y-10174500D02*
X17548000Y-10274500D01*
X17548000Y-10428500D02*
X17648000Y-10528500D01*
X17648000Y-10428500D02*
X17548000Y-10528500D01*
X17548000Y-10682500D02*
X17648000Y-10782500D01*
X17648000Y-10682500D02*
X17548000Y-10782500D01*
X17548000Y-10936500D02*
X17648000Y-11036500D01*
X17648000Y-10936500D02*
X17548000Y-11036500D01*
X17548000Y-11190500D02*
X17648000Y-11290500D01*
X17648000Y-11190500D02*
X17548000Y-11290500D01*
X17548000Y-11444500D02*
X17648000Y-11544500D01*
X17648000Y-11444500D02*
X17548000Y-11544500D01*
X17548000Y-11698500D02*
X17648000Y-11798500D01*
X17648000Y-11698500D02*
X17548000Y-11798500D01*
X17548000Y-11952500D02*
X17648000Y-12052500D01*
X17648000Y-11952500D02*
X17548000Y-12052500D01*
X17550000Y-12838500D02*
X17650000Y-12938500D01*
X17650000Y-12838500D02*
X17550000Y-12938500D01*
X17550000Y-13092500D02*
X17650000Y-13192500D01*
X17650000Y-13092500D02*
X17550000Y-13192500D01*
X17802000Y-7380500D02*
X17902000Y-7480500D01*
X17902000Y-7380500D02*
X17802000Y-7480500D01*
X17802000Y-7634500D02*
X17902000Y-7734500D01*
X17902000Y-7634500D02*
X17802000Y-7734500D01*
X17802000Y-7888500D02*
X17902000Y-7988500D01*
X17902000Y-7888500D02*
X17802000Y-7988500D01*
X17802000Y-8142500D02*
X17902000Y-8242500D01*
X17902000Y-8142500D02*
X17802000Y-8242500D01*
X17802000Y-8396500D02*
X17902000Y-8496500D01*
X17902000Y-8396500D02*
X17802000Y-8496500D01*
X17802000Y-8650500D02*
X17902000Y-8750500D01*
X17902000Y-8650500D02*
X17802000Y-8750500D01*
X17802000Y-8904500D02*
X17902000Y-9004500D01*
X17902000Y-8904500D02*
X17802000Y-9004500D01*
X17802000Y-9158500D02*
X17902000Y-9258500D01*
X17902000Y-9158500D02*
X17802000Y-9258500D01*
X17802000Y-9412500D02*
X17902000Y-9512500D01*
X17902000Y-9412500D02*
X17802000Y-9512500D01*
X17802000Y-9666500D02*
X17902000Y-9766500D01*
X17902000Y-9666500D02*
X17802000Y-9766500D01*
X17802000Y-9920500D02*
X17902000Y-10020500D01*
X17902000Y-9920500D02*
X17802000Y-10020500D01*
X17802000Y-10174500D02*
X17902000Y-10274500D01*
X17902000Y-10174500D02*
X17802000Y-10274500D01*
X17802000Y-10428500D02*
X17902000Y-10528500D01*
X17902000Y-10428500D02*
X17802000Y-10528500D01*
X17802000Y-10682500D02*
X17902000Y-10782500D01*
X17902000Y-10682500D02*
X17802000Y-10782500D01*
X17802000Y-10936500D02*
X17902000Y-11036500D01*
X17902000Y-10936500D02*
X17802000Y-11036500D01*
X17802000Y-11190500D02*
X17902000Y-11290500D01*
X17902000Y-11190500D02*
X17802000Y-11290500D01*
X17802000Y-11444500D02*
X17902000Y-11544500D01*
X17902000Y-11444500D02*
X17802000Y-11544500D01*
X17802000Y-11698500D02*
X17902000Y-11798500D01*
X17902000Y-11698500D02*
X17802000Y-11798500D01*
X17802000Y-11952500D02*
X17902000Y-12052500D01*
X17902000Y-11952500D02*
X17802000Y-12052500D01*
X17804000Y-12838500D02*
X17904000Y-12938500D01*
X17904000Y-12838500D02*
X17804000Y-12938500D01*
X17804000Y-13092500D02*
X17904000Y-13192500D01*
X17904000Y-13092500D02*
X17804000Y-13192500D01*
X18058000Y-12838500D02*
X18158000Y-12938500D01*
X18158000Y-12838500D02*
X18058000Y-12938500D01*
X18058000Y-13092500D02*
X18158000Y-13192500D01*
X18158000Y-13092500D02*
X18058000Y-13192500D01*
X18312000Y-12838500D02*
X18412000Y-12938500D01*
X18412000Y-12838500D02*
X18312000Y-12938500D01*
X18312000Y-13092500D02*
X18412000Y-13192500D01*
X18412000Y-13092500D02*
X18312000Y-13192500D01*
X18566000Y-12838500D02*
X18666000Y-12938500D01*
X18666000Y-12838500D02*
X18566000Y-12938500D01*
X18566000Y-13092500D02*
X18666000Y-13192500D01*
X18666000Y-13092500D02*
X18566000Y-13192500D01*
D13*
X10765000Y-6794500D02*
G75*
G02*
X10465000Y-6794500I-150000J0D01*
G01*
X10465000Y-6794500D02*
G75*
G02*
X10765000Y-6794500I150000J0D01*
G01*
X10765000Y-12255500D02*
G75*
G02*
X10465000Y-12255500I-150000J0D01*
G01*
X10465000Y-12255500D02*
G75*
G02*
X10765000Y-12255500I150000J0D01*
G01*
X18893000Y-6794500D02*
G75*
G02*
X18593000Y-6794500I-150000J0D01*
G01*
X18593000Y-6794500D02*
G75*
G02*
X18893000Y-6794500I150000J0D01*
G01*
X18893000Y-12255500D02*
G75*
G02*
X18593000Y-12255500I-150000J0D01*
G01*
X18593000Y-12255500D02*
G75*
G02*
X18893000Y-12255500I150000J0D01*
G01*
D11*
X10365277Y-13839484D02*
X10365277Y-13639484D01*
X10365277Y-13639484D02*
X10412896Y-13639484D01*
X10412896Y-13639484D02*
X10441467Y-13649008D01*
X10441467Y-13649008D02*
X10460515Y-13668055D01*
X10460515Y-13668055D02*
X10470039Y-13687103D01*
X10470039Y-13687103D02*
X10479563Y-13725198D01*
X10479563Y-13725198D02*
X10479563Y-13753769D01*
X10479563Y-13753769D02*
X10470039Y-13791865D01*
X10470039Y-13791865D02*
X10460515Y-13810912D01*
X10460515Y-13810912D02*
X10441467Y-13829960D01*
X10441467Y-13829960D02*
X10412896Y-13839484D01*
X10412896Y-13839484D02*
X10365277Y-13839484D01*
X10565277Y-13839484D02*
X10565277Y-13706150D01*
X10565277Y-13744246D02*
X10574801Y-13725198D01*
X10574801Y-13725198D02*
X10584324Y-13715674D01*
X10584324Y-13715674D02*
X10603372Y-13706150D01*
X10603372Y-13706150D02*
X10622420Y-13706150D01*
X10689086Y-13839484D02*
X10689086Y-13706150D01*
X10689086Y-13639484D02*
X10679563Y-13649008D01*
X10679563Y-13649008D02*
X10689086Y-13658531D01*
X10689086Y-13658531D02*
X10698610Y-13649008D01*
X10698610Y-13649008D02*
X10689086Y-13639484D01*
X10689086Y-13639484D02*
X10689086Y-13658531D01*
X10812896Y-13839484D02*
X10793848Y-13829960D01*
X10793848Y-13829960D02*
X10784324Y-13810912D01*
X10784324Y-13810912D02*
X10784324Y-13639484D01*
X10917658Y-13839484D02*
X10898610Y-13829960D01*
X10898610Y-13829960D02*
X10889086Y-13810912D01*
X10889086Y-13810912D02*
X10889086Y-13639484D01*
X11146229Y-13839484D02*
X11146229Y-13639484D01*
X11146229Y-13639484D02*
X11212896Y-13782341D01*
X11212896Y-13782341D02*
X11279562Y-13639484D01*
X11279562Y-13639484D02*
X11279562Y-13839484D01*
X11460515Y-13839484D02*
X11460515Y-13734722D01*
X11460515Y-13734722D02*
X11450991Y-13715674D01*
X11450991Y-13715674D02*
X11431943Y-13706150D01*
X11431943Y-13706150D02*
X11393848Y-13706150D01*
X11393848Y-13706150D02*
X11374801Y-13715674D01*
X11460515Y-13829960D02*
X11441467Y-13839484D01*
X11441467Y-13839484D02*
X11393848Y-13839484D01*
X11393848Y-13839484D02*
X11374801Y-13829960D01*
X11374801Y-13829960D02*
X11365277Y-13810912D01*
X11365277Y-13810912D02*
X11365277Y-13791865D01*
X11365277Y-13791865D02*
X11374801Y-13772817D01*
X11374801Y-13772817D02*
X11393848Y-13763293D01*
X11393848Y-13763293D02*
X11441467Y-13763293D01*
X11441467Y-13763293D02*
X11460515Y-13753769D01*
X11555753Y-13706150D02*
X11555753Y-13906150D01*
X11555753Y-13715674D02*
X11574801Y-13706150D01*
X11574801Y-13706150D02*
X11612896Y-13706150D01*
X11612896Y-13706150D02*
X11631943Y-13715674D01*
X11631943Y-13715674D02*
X11641467Y-13725198D01*
X11641467Y-13725198D02*
X11650991Y-13744246D01*
X11650991Y-13744246D02*
X11650991Y-13801388D01*
X11650991Y-13801388D02*
X11641467Y-13820436D01*
X11641467Y-13820436D02*
X11631943Y-13829960D01*
X11631943Y-13829960D02*
X11612896Y-13839484D01*
X11612896Y-13839484D02*
X11574801Y-13839484D01*
X11574801Y-13839484D02*
X11555753Y-13829960D01*
X11736705Y-13820436D02*
X11746229Y-13829960D01*
X11746229Y-13829960D02*
X11736705Y-13839484D01*
X11736705Y-13839484D02*
X11727182Y-13829960D01*
X11727182Y-13829960D02*
X11736705Y-13820436D01*
X11736705Y-13820436D02*
X11736705Y-13839484D01*
X11736705Y-13715674D02*
X11746229Y-13725198D01*
X11746229Y-13725198D02*
X11736705Y-13734722D01*
X11736705Y-13734722D02*
X11727182Y-13725198D01*
X11727182Y-13725198D02*
X11736705Y-13715674D01*
X11736705Y-13715674D02*
X11736705Y-13734722D01*
D12*
X10004500Y-14118000D02*
X10104500Y-14218000D01*
X10104500Y-14118000D02*
X10004500Y-14218000D01*
D11*
X10470039Y-14259484D02*
X10355753Y-14259484D01*
X10412896Y-14259484D02*
X10412896Y-14059484D01*
X10412896Y-14059484D02*
X10393848Y-14088055D01*
X10393848Y-14088055D02*
X10374801Y-14107103D01*
X10374801Y-14107103D02*
X10355753Y-14116627D01*
X10555753Y-14240436D02*
X10565277Y-14249960D01*
X10565277Y-14249960D02*
X10555753Y-14259484D01*
X10555753Y-14259484D02*
X10546229Y-14249960D01*
X10546229Y-14249960D02*
X10555753Y-14240436D01*
X10555753Y-14240436D02*
X10555753Y-14259484D01*
X10689086Y-14059484D02*
X10708134Y-14059484D01*
X10708134Y-14059484D02*
X10727182Y-14069008D01*
X10727182Y-14069008D02*
X10736705Y-14078531D01*
X10736705Y-14078531D02*
X10746229Y-14097579D01*
X10746229Y-14097579D02*
X10755753Y-14135674D01*
X10755753Y-14135674D02*
X10755753Y-14183293D01*
X10755753Y-14183293D02*
X10746229Y-14221388D01*
X10746229Y-14221388D02*
X10736705Y-14240436D01*
X10736705Y-14240436D02*
X10727182Y-14249960D01*
X10727182Y-14249960D02*
X10708134Y-14259484D01*
X10708134Y-14259484D02*
X10689086Y-14259484D01*
X10689086Y-14259484D02*
X10670039Y-14249960D01*
X10670039Y-14249960D02*
X10660515Y-14240436D01*
X10660515Y-14240436D02*
X10650991Y-14221388D01*
X10650991Y-14221388D02*
X10641467Y-14183293D01*
X10641467Y-14183293D02*
X10641467Y-14135674D01*
X10641467Y-14135674D02*
X10650991Y-14097579D01*
X10650991Y-14097579D02*
X10660515Y-14078531D01*
X10660515Y-14078531D02*
X10670039Y-14069008D01*
X10670039Y-14069008D02*
X10689086Y-14059484D01*
X10879563Y-14059484D02*
X10898610Y-14059484D01*
X10898610Y-14059484D02*
X10917658Y-14069008D01*
X10917658Y-14069008D02*
X10927182Y-14078531D01*
X10927182Y-14078531D02*
X10936705Y-14097579D01*
X10936705Y-14097579D02*
X10946229Y-14135674D01*
X10946229Y-14135674D02*
X10946229Y-14183293D01*
X10946229Y-14183293D02*
X10936705Y-14221388D01*
X10936705Y-14221388D02*
X10927182Y-14240436D01*
X10927182Y-14240436D02*
X10917658Y-14249960D01*
X10917658Y-14249960D02*
X10898610Y-14259484D01*
X10898610Y-14259484D02*
X10879563Y-14259484D01*
X10879563Y-14259484D02*
X10860515Y-14249960D01*
X10860515Y-14249960D02*
X10850991Y-14240436D01*
X10850991Y-14240436D02*
X10841467Y-14221388D01*
X10841467Y-14221388D02*
X10831944Y-14183293D01*
X10831944Y-14183293D02*
X10831944Y-14135674D01*
X10831944Y-14135674D02*
X10841467Y-14097579D01*
X10841467Y-14097579D02*
X10850991Y-14078531D01*
X10850991Y-14078531D02*
X10860515Y-14069008D01*
X10860515Y-14069008D02*
X10879563Y-14059484D01*
X11070039Y-14059484D02*
X11089086Y-14059484D01*
X11089086Y-14059484D02*
X11108134Y-14069008D01*
X11108134Y-14069008D02*
X11117658Y-14078531D01*
X11117658Y-14078531D02*
X11127182Y-14097579D01*
X11127182Y-14097579D02*
X11136705Y-14135674D01*
X11136705Y-14135674D02*
X11136705Y-14183293D01*
X11136705Y-14183293D02*
X11127182Y-14221388D01*
X11127182Y-14221388D02*
X11117658Y-14240436D01*
X11117658Y-14240436D02*
X11108134Y-14249960D01*
X11108134Y-14249960D02*
X11089086Y-14259484D01*
X11089086Y-14259484D02*
X11070039Y-14259484D01*
X11070039Y-14259484D02*
X11050991Y-14249960D01*
X11050991Y-14249960D02*
X11041467Y-14240436D01*
X11041467Y-14240436D02*
X11031944Y-14221388D01*
X11031944Y-14221388D02*
X11022420Y-14183293D01*
X11022420Y-14183293D02*
X11022420Y-14135674D01*
X11022420Y-14135674D02*
X11031944Y-14097579D01*
X11031944Y-14097579D02*
X11041467Y-14078531D01*
X11041467Y-14078531D02*
X11050991Y-14069008D01*
X11050991Y-14069008D02*
X11070039Y-14059484D01*
X11222420Y-14259484D02*
X11222420Y-14126150D01*
X11222420Y-14145198D02*
X11231943Y-14135674D01*
X11231943Y-14135674D02*
X11250991Y-14126150D01*
X11250991Y-14126150D02*
X11279563Y-14126150D01*
X11279563Y-14126150D02*
X11298610Y-14135674D01*
X11298610Y-14135674D02*
X11308134Y-14154722D01*
X11308134Y-14154722D02*
X11308134Y-14259484D01*
X11308134Y-14154722D02*
X11317658Y-14135674D01*
X11317658Y-14135674D02*
X11336705Y-14126150D01*
X11336705Y-14126150D02*
X11365277Y-14126150D01*
X11365277Y-14126150D02*
X11384324Y-14135674D01*
X11384324Y-14135674D02*
X11393848Y-14154722D01*
X11393848Y-14154722D02*
X11393848Y-14259484D01*
X11489086Y-14259484D02*
X11489086Y-14126150D01*
X11489086Y-14145198D02*
X11498610Y-14135674D01*
X11498610Y-14135674D02*
X11517658Y-14126150D01*
X11517658Y-14126150D02*
X11546229Y-14126150D01*
X11546229Y-14126150D02*
X11565277Y-14135674D01*
X11565277Y-14135674D02*
X11574801Y-14154722D01*
X11574801Y-14154722D02*
X11574801Y-14259484D01*
X11574801Y-14154722D02*
X11584324Y-14135674D01*
X11584324Y-14135674D02*
X11603372Y-14126150D01*
X11603372Y-14126150D02*
X11631943Y-14126150D01*
X11631943Y-14126150D02*
X11650991Y-14135674D01*
X11650991Y-14135674D02*
X11660515Y-14154722D01*
X11660515Y-14154722D02*
X11660515Y-14259484D01*
X12050991Y-14049960D02*
X11879563Y-14307103D01*
X12308134Y-14059484D02*
X12327182Y-14059484D01*
X12327182Y-14059484D02*
X12346229Y-14069008D01*
X12346229Y-14069008D02*
X12355753Y-14078531D01*
X12355753Y-14078531D02*
X12365277Y-14097579D01*
X12365277Y-14097579D02*
X12374801Y-14135674D01*
X12374801Y-14135674D02*
X12374801Y-14183293D01*
X12374801Y-14183293D02*
X12365277Y-14221388D01*
X12365277Y-14221388D02*
X12355753Y-14240436D01*
X12355753Y-14240436D02*
X12346229Y-14249960D01*
X12346229Y-14249960D02*
X12327182Y-14259484D01*
X12327182Y-14259484D02*
X12308134Y-14259484D01*
X12308134Y-14259484D02*
X12289086Y-14249960D01*
X12289086Y-14249960D02*
X12279563Y-14240436D01*
X12279563Y-14240436D02*
X12270039Y-14221388D01*
X12270039Y-14221388D02*
X12260515Y-14183293D01*
X12260515Y-14183293D02*
X12260515Y-14135674D01*
X12260515Y-14135674D02*
X12270039Y-14097579D01*
X12270039Y-14097579D02*
X12279563Y-14078531D01*
X12279563Y-14078531D02*
X12289086Y-14069008D01*
X12289086Y-14069008D02*
X12308134Y-14059484D01*
X12460515Y-14240436D02*
X12470039Y-14249960D01*
X12470039Y-14249960D02*
X12460515Y-14259484D01*
X12460515Y-14259484D02*
X12450991Y-14249960D01*
X12450991Y-14249960D02*
X12460515Y-14240436D01*
X12460515Y-14240436D02*
X12460515Y-14259484D01*
X12593848Y-14059484D02*
X12612896Y-14059484D01*
X12612896Y-14059484D02*
X12631944Y-14069008D01*
X12631944Y-14069008D02*
X12641467Y-14078531D01*
X12641467Y-14078531D02*
X12650991Y-14097579D01*
X12650991Y-14097579D02*
X12660515Y-14135674D01*
X12660515Y-14135674D02*
X12660515Y-14183293D01*
X12660515Y-14183293D02*
X12650991Y-14221388D01*
X12650991Y-14221388D02*
X12641467Y-14240436D01*
X12641467Y-14240436D02*
X12631944Y-14249960D01*
X12631944Y-14249960D02*
X12612896Y-14259484D01*
X12612896Y-14259484D02*
X12593848Y-14259484D01*
X12593848Y-14259484D02*
X12574801Y-14249960D01*
X12574801Y-14249960D02*
X12565277Y-14240436D01*
X12565277Y-14240436D02*
X12555753Y-14221388D01*
X12555753Y-14221388D02*
X12546229Y-14183293D01*
X12546229Y-14183293D02*
X12546229Y-14135674D01*
X12546229Y-14135674D02*
X12555753Y-14097579D01*
X12555753Y-14097579D02*
X12565277Y-14078531D01*
X12565277Y-14078531D02*
X12574801Y-14069008D01*
X12574801Y-14069008D02*
X12593848Y-14059484D01*
X12727182Y-14059484D02*
X12850991Y-14059484D01*
X12850991Y-14059484D02*
X12784325Y-14135674D01*
X12784325Y-14135674D02*
X12812896Y-14135674D01*
X12812896Y-14135674D02*
X12831944Y-14145198D01*
X12831944Y-14145198D02*
X12841467Y-14154722D01*
X12841467Y-14154722D02*
X12850991Y-14173769D01*
X12850991Y-14173769D02*
X12850991Y-14221388D01*
X12850991Y-14221388D02*
X12841467Y-14240436D01*
X12841467Y-14240436D02*
X12831944Y-14249960D01*
X12831944Y-14249960D02*
X12812896Y-14259484D01*
X12812896Y-14259484D02*
X12755753Y-14259484D01*
X12755753Y-14259484D02*
X12736706Y-14249960D01*
X12736706Y-14249960D02*
X12727182Y-14240436D01*
X12946229Y-14259484D02*
X12984325Y-14259484D01*
X12984325Y-14259484D02*
X13003372Y-14249960D01*
X13003372Y-14249960D02*
X13012896Y-14240436D01*
X13012896Y-14240436D02*
X13031944Y-14211865D01*
X13031944Y-14211865D02*
X13041467Y-14173769D01*
X13041467Y-14173769D02*
X13041467Y-14097579D01*
X13041467Y-14097579D02*
X13031944Y-14078531D01*
X13031944Y-14078531D02*
X13022420Y-14069008D01*
X13022420Y-14069008D02*
X13003372Y-14059484D01*
X13003372Y-14059484D02*
X12965277Y-14059484D01*
X12965277Y-14059484D02*
X12946229Y-14069008D01*
X12946229Y-14069008D02*
X12936706Y-14078531D01*
X12936706Y-14078531D02*
X12927182Y-14097579D01*
X12927182Y-14097579D02*
X12927182Y-14145198D01*
X12927182Y-14145198D02*
X12936706Y-14164246D01*
X12936706Y-14164246D02*
X12946229Y-14173769D01*
X12946229Y-14173769D02*
X12965277Y-14183293D01*
X12965277Y-14183293D02*
X13003372Y-14183293D01*
X13003372Y-14183293D02*
X13022420Y-14173769D01*
X13022420Y-14173769D02*
X13031944Y-14164246D01*
X13031944Y-14164246D02*
X13041467Y-14145198D01*
X13212896Y-14126150D02*
X13212896Y-14259484D01*
X13165277Y-14049960D02*
X13117658Y-14192817D01*
X13117658Y-14192817D02*
X13241467Y-14192817D01*
X13308134Y-14059484D02*
X13308134Y-14097579D01*
X13384325Y-14059484D02*
X13384325Y-14097579D01*
X13679563Y-14335674D02*
X13670039Y-14326150D01*
X13670039Y-14326150D02*
X13650991Y-14297579D01*
X13650991Y-14297579D02*
X13641468Y-14278531D01*
X13641468Y-14278531D02*
X13631944Y-14249960D01*
X13631944Y-14249960D02*
X13622420Y-14202341D01*
X13622420Y-14202341D02*
X13622420Y-14164246D01*
X13622420Y-14164246D02*
X13631944Y-14116627D01*
X13631944Y-14116627D02*
X13641468Y-14088055D01*
X13641468Y-14088055D02*
X13650991Y-14069008D01*
X13650991Y-14069008D02*
X13670039Y-14040436D01*
X13670039Y-14040436D02*
X13679563Y-14030912D01*
X13860515Y-14259484D02*
X13746229Y-14259484D01*
X13803372Y-14259484D02*
X13803372Y-14059484D01*
X13803372Y-14059484D02*
X13784325Y-14088055D01*
X13784325Y-14088055D02*
X13765277Y-14107103D01*
X13765277Y-14107103D02*
X13746229Y-14116627D01*
X14031944Y-14126150D02*
X14031944Y-14259484D01*
X13984325Y-14049960D02*
X13936706Y-14192817D01*
X13936706Y-14192817D02*
X14060515Y-14192817D01*
X14127182Y-14078531D02*
X14136706Y-14069008D01*
X14136706Y-14069008D02*
X14155753Y-14059484D01*
X14155753Y-14059484D02*
X14203372Y-14059484D01*
X14203372Y-14059484D02*
X14222420Y-14069008D01*
X14222420Y-14069008D02*
X14231944Y-14078531D01*
X14231944Y-14078531D02*
X14241468Y-14097579D01*
X14241468Y-14097579D02*
X14241468Y-14116627D01*
X14241468Y-14116627D02*
X14231944Y-14145198D01*
X14231944Y-14145198D02*
X14117658Y-14259484D01*
X14117658Y-14259484D02*
X14241468Y-14259484D01*
X14479563Y-14259484D02*
X14479563Y-14059484D01*
X14565277Y-14259484D02*
X14565277Y-14154722D01*
X14565277Y-14154722D02*
X14555753Y-14135674D01*
X14555753Y-14135674D02*
X14536706Y-14126150D01*
X14536706Y-14126150D02*
X14508134Y-14126150D01*
X14508134Y-14126150D02*
X14489087Y-14135674D01*
X14489087Y-14135674D02*
X14479563Y-14145198D01*
X14689087Y-14259484D02*
X14670039Y-14249960D01*
X14670039Y-14249960D02*
X14660515Y-14240436D01*
X14660515Y-14240436D02*
X14650991Y-14221388D01*
X14650991Y-14221388D02*
X14650991Y-14164246D01*
X14650991Y-14164246D02*
X14660515Y-14145198D01*
X14660515Y-14145198D02*
X14670039Y-14135674D01*
X14670039Y-14135674D02*
X14689087Y-14126150D01*
X14689087Y-14126150D02*
X14717658Y-14126150D01*
X14717658Y-14126150D02*
X14736706Y-14135674D01*
X14736706Y-14135674D02*
X14746230Y-14145198D01*
X14746230Y-14145198D02*
X14755753Y-14164246D01*
X14755753Y-14164246D02*
X14755753Y-14221388D01*
X14755753Y-14221388D02*
X14746230Y-14240436D01*
X14746230Y-14240436D02*
X14736706Y-14249960D01*
X14736706Y-14249960D02*
X14717658Y-14259484D01*
X14717658Y-14259484D02*
X14689087Y-14259484D01*
X14870039Y-14259484D02*
X14850991Y-14249960D01*
X14850991Y-14249960D02*
X14841468Y-14230912D01*
X14841468Y-14230912D02*
X14841468Y-14059484D01*
X15022420Y-14249960D02*
X15003372Y-14259484D01*
X15003372Y-14259484D02*
X14965277Y-14259484D01*
X14965277Y-14259484D02*
X14946230Y-14249960D01*
X14946230Y-14249960D02*
X14936706Y-14230912D01*
X14936706Y-14230912D02*
X14936706Y-14154722D01*
X14936706Y-14154722D02*
X14946230Y-14135674D01*
X14946230Y-14135674D02*
X14965277Y-14126150D01*
X14965277Y-14126150D02*
X15003372Y-14126150D01*
X15003372Y-14126150D02*
X15022420Y-14135674D01*
X15022420Y-14135674D02*
X15031944Y-14154722D01*
X15031944Y-14154722D02*
X15031944Y-14173769D01*
X15031944Y-14173769D02*
X14936706Y-14192817D01*
X15108134Y-14249960D02*
X15127182Y-14259484D01*
X15127182Y-14259484D02*
X15165277Y-14259484D01*
X15165277Y-14259484D02*
X15184325Y-14249960D01*
X15184325Y-14249960D02*
X15193849Y-14230912D01*
X15193849Y-14230912D02*
X15193849Y-14221388D01*
X15193849Y-14221388D02*
X15184325Y-14202341D01*
X15184325Y-14202341D02*
X15165277Y-14192817D01*
X15165277Y-14192817D02*
X15136706Y-14192817D01*
X15136706Y-14192817D02*
X15117658Y-14183293D01*
X15117658Y-14183293D02*
X15108134Y-14164246D01*
X15108134Y-14164246D02*
X15108134Y-14154722D01*
X15108134Y-14154722D02*
X15117658Y-14135674D01*
X15117658Y-14135674D02*
X15136706Y-14126150D01*
X15136706Y-14126150D02*
X15165277Y-14126150D01*
X15165277Y-14126150D02*
X15184325Y-14135674D01*
X15260515Y-14335674D02*
X15270039Y-14326150D01*
X15270039Y-14326150D02*
X15289087Y-14297579D01*
X15289087Y-14297579D02*
X15298611Y-14278531D01*
X15298611Y-14278531D02*
X15308134Y-14249960D01*
X15308134Y-14249960D02*
X15317658Y-14202341D01*
X15317658Y-14202341D02*
X15317658Y-14164246D01*
X15317658Y-14164246D02*
X15308134Y-14116627D01*
X15308134Y-14116627D02*
X15298611Y-14088055D01*
X15298611Y-14088055D02*
X15289087Y-14069008D01*
X15289087Y-14069008D02*
X15270039Y-14040436D01*
X15270039Y-14040436D02*
X15260515Y-14030912D01*
X10104500Y-14432000D02*
G75*
G02*
X9904500Y-14432000I-100000J0D01*
G01*
X9904500Y-14432000D02*
G75*
G02*
X10104500Y-14432000I100000J0D01*
G01*
X10346229Y-14323484D02*
X10470039Y-14323484D01*
X10470039Y-14323484D02*
X10403372Y-14399674D01*
X10403372Y-14399674D02*
X10431944Y-14399674D01*
X10431944Y-14399674D02*
X10450991Y-14409198D01*
X10450991Y-14409198D02*
X10460515Y-14418722D01*
X10460515Y-14418722D02*
X10470039Y-14437769D01*
X10470039Y-14437769D02*
X10470039Y-14485388D01*
X10470039Y-14485388D02*
X10460515Y-14504436D01*
X10460515Y-14504436D02*
X10450991Y-14513960D01*
X10450991Y-14513960D02*
X10431944Y-14523484D01*
X10431944Y-14523484D02*
X10374801Y-14523484D01*
X10374801Y-14523484D02*
X10355753Y-14513960D01*
X10355753Y-14513960D02*
X10346229Y-14504436D01*
X10555753Y-14504436D02*
X10565277Y-14513960D01*
X10565277Y-14513960D02*
X10555753Y-14523484D01*
X10555753Y-14523484D02*
X10546229Y-14513960D01*
X10546229Y-14513960D02*
X10555753Y-14504436D01*
X10555753Y-14504436D02*
X10555753Y-14523484D01*
X10689086Y-14323484D02*
X10708134Y-14323484D01*
X10708134Y-14323484D02*
X10727182Y-14333008D01*
X10727182Y-14333008D02*
X10736705Y-14342531D01*
X10736705Y-14342531D02*
X10746229Y-14361579D01*
X10746229Y-14361579D02*
X10755753Y-14399674D01*
X10755753Y-14399674D02*
X10755753Y-14447293D01*
X10755753Y-14447293D02*
X10746229Y-14485388D01*
X10746229Y-14485388D02*
X10736705Y-14504436D01*
X10736705Y-14504436D02*
X10727182Y-14513960D01*
X10727182Y-14513960D02*
X10708134Y-14523484D01*
X10708134Y-14523484D02*
X10689086Y-14523484D01*
X10689086Y-14523484D02*
X10670039Y-14513960D01*
X10670039Y-14513960D02*
X10660515Y-14504436D01*
X10660515Y-14504436D02*
X10650991Y-14485388D01*
X10650991Y-14485388D02*
X10641467Y-14447293D01*
X10641467Y-14447293D02*
X10641467Y-14399674D01*
X10641467Y-14399674D02*
X10650991Y-14361579D01*
X10650991Y-14361579D02*
X10660515Y-14342531D01*
X10660515Y-14342531D02*
X10670039Y-14333008D01*
X10670039Y-14333008D02*
X10689086Y-14323484D01*
X10879563Y-14323484D02*
X10898610Y-14323484D01*
X10898610Y-14323484D02*
X10917658Y-14333008D01*
X10917658Y-14333008D02*
X10927182Y-14342531D01*
X10927182Y-14342531D02*
X10936705Y-14361579D01*
X10936705Y-14361579D02*
X10946229Y-14399674D01*
X10946229Y-14399674D02*
X10946229Y-14447293D01*
X10946229Y-14447293D02*
X10936705Y-14485388D01*
X10936705Y-14485388D02*
X10927182Y-14504436D01*
X10927182Y-14504436D02*
X10917658Y-14513960D01*
X10917658Y-14513960D02*
X10898610Y-14523484D01*
X10898610Y-14523484D02*
X10879563Y-14523484D01*
X10879563Y-14523484D02*
X10860515Y-14513960D01*
X10860515Y-14513960D02*
X10850991Y-14504436D01*
X10850991Y-14504436D02*
X10841467Y-14485388D01*
X10841467Y-14485388D02*
X10831944Y-14447293D01*
X10831944Y-14447293D02*
X10831944Y-14399674D01*
X10831944Y-14399674D02*
X10841467Y-14361579D01*
X10841467Y-14361579D02*
X10850991Y-14342531D01*
X10850991Y-14342531D02*
X10860515Y-14333008D01*
X10860515Y-14333008D02*
X10879563Y-14323484D01*
X11070039Y-14323484D02*
X11089086Y-14323484D01*
X11089086Y-14323484D02*
X11108134Y-14333008D01*
X11108134Y-14333008D02*
X11117658Y-14342531D01*
X11117658Y-14342531D02*
X11127182Y-14361579D01*
X11127182Y-14361579D02*
X11136705Y-14399674D01*
X11136705Y-14399674D02*
X11136705Y-14447293D01*
X11136705Y-14447293D02*
X11127182Y-14485388D01*
X11127182Y-14485388D02*
X11117658Y-14504436D01*
X11117658Y-14504436D02*
X11108134Y-14513960D01*
X11108134Y-14513960D02*
X11089086Y-14523484D01*
X11089086Y-14523484D02*
X11070039Y-14523484D01*
X11070039Y-14523484D02*
X11050991Y-14513960D01*
X11050991Y-14513960D02*
X11041467Y-14504436D01*
X11041467Y-14504436D02*
X11031944Y-14485388D01*
X11031944Y-14485388D02*
X11022420Y-14447293D01*
X11022420Y-14447293D02*
X11022420Y-14399674D01*
X11022420Y-14399674D02*
X11031944Y-14361579D01*
X11031944Y-14361579D02*
X11041467Y-14342531D01*
X11041467Y-14342531D02*
X11050991Y-14333008D01*
X11050991Y-14333008D02*
X11070039Y-14323484D01*
X11222420Y-14523484D02*
X11222420Y-14390150D01*
X11222420Y-14409198D02*
X11231943Y-14399674D01*
X11231943Y-14399674D02*
X11250991Y-14390150D01*
X11250991Y-14390150D02*
X11279563Y-14390150D01*
X11279563Y-14390150D02*
X11298610Y-14399674D01*
X11298610Y-14399674D02*
X11308134Y-14418722D01*
X11308134Y-14418722D02*
X11308134Y-14523484D01*
X11308134Y-14418722D02*
X11317658Y-14399674D01*
X11317658Y-14399674D02*
X11336705Y-14390150D01*
X11336705Y-14390150D02*
X11365277Y-14390150D01*
X11365277Y-14390150D02*
X11384324Y-14399674D01*
X11384324Y-14399674D02*
X11393848Y-14418722D01*
X11393848Y-14418722D02*
X11393848Y-14523484D01*
X11489086Y-14523484D02*
X11489086Y-14390150D01*
X11489086Y-14409198D02*
X11498610Y-14399674D01*
X11498610Y-14399674D02*
X11517658Y-14390150D01*
X11517658Y-14390150D02*
X11546229Y-14390150D01*
X11546229Y-14390150D02*
X11565277Y-14399674D01*
X11565277Y-14399674D02*
X11574801Y-14418722D01*
X11574801Y-14418722D02*
X11574801Y-14523484D01*
X11574801Y-14418722D02*
X11584324Y-14399674D01*
X11584324Y-14399674D02*
X11603372Y-14390150D01*
X11603372Y-14390150D02*
X11631943Y-14390150D01*
X11631943Y-14390150D02*
X11650991Y-14399674D01*
X11650991Y-14399674D02*
X11660515Y-14418722D01*
X11660515Y-14418722D02*
X11660515Y-14523484D01*
X12050991Y-14313960D02*
X11879563Y-14571103D01*
X12308134Y-14323484D02*
X12327182Y-14323484D01*
X12327182Y-14323484D02*
X12346229Y-14333008D01*
X12346229Y-14333008D02*
X12355753Y-14342531D01*
X12355753Y-14342531D02*
X12365277Y-14361579D01*
X12365277Y-14361579D02*
X12374801Y-14399674D01*
X12374801Y-14399674D02*
X12374801Y-14447293D01*
X12374801Y-14447293D02*
X12365277Y-14485388D01*
X12365277Y-14485388D02*
X12355753Y-14504436D01*
X12355753Y-14504436D02*
X12346229Y-14513960D01*
X12346229Y-14513960D02*
X12327182Y-14523484D01*
X12327182Y-14523484D02*
X12308134Y-14523484D01*
X12308134Y-14523484D02*
X12289086Y-14513960D01*
X12289086Y-14513960D02*
X12279563Y-14504436D01*
X12279563Y-14504436D02*
X12270039Y-14485388D01*
X12270039Y-14485388D02*
X12260515Y-14447293D01*
X12260515Y-14447293D02*
X12260515Y-14399674D01*
X12260515Y-14399674D02*
X12270039Y-14361579D01*
X12270039Y-14361579D02*
X12279563Y-14342531D01*
X12279563Y-14342531D02*
X12289086Y-14333008D01*
X12289086Y-14333008D02*
X12308134Y-14323484D01*
X12460515Y-14504436D02*
X12470039Y-14513960D01*
X12470039Y-14513960D02*
X12460515Y-14523484D01*
X12460515Y-14523484D02*
X12450991Y-14513960D01*
X12450991Y-14513960D02*
X12460515Y-14504436D01*
X12460515Y-14504436D02*
X12460515Y-14523484D01*
X12660515Y-14523484D02*
X12546229Y-14523484D01*
X12603372Y-14523484D02*
X12603372Y-14323484D01*
X12603372Y-14323484D02*
X12584325Y-14352055D01*
X12584325Y-14352055D02*
X12565277Y-14371103D01*
X12565277Y-14371103D02*
X12546229Y-14380627D01*
X12850991Y-14523484D02*
X12736706Y-14523484D01*
X12793848Y-14523484D02*
X12793848Y-14323484D01*
X12793848Y-14323484D02*
X12774801Y-14352055D01*
X12774801Y-14352055D02*
X12755753Y-14371103D01*
X12755753Y-14371103D02*
X12736706Y-14380627D01*
X12965277Y-14409198D02*
X12946229Y-14399674D01*
X12946229Y-14399674D02*
X12936706Y-14390150D01*
X12936706Y-14390150D02*
X12927182Y-14371103D01*
X12927182Y-14371103D02*
X12927182Y-14361579D01*
X12927182Y-14361579D02*
X12936706Y-14342531D01*
X12936706Y-14342531D02*
X12946229Y-14333008D01*
X12946229Y-14333008D02*
X12965277Y-14323484D01*
X12965277Y-14323484D02*
X13003372Y-14323484D01*
X13003372Y-14323484D02*
X13022420Y-14333008D01*
X13022420Y-14333008D02*
X13031944Y-14342531D01*
X13031944Y-14342531D02*
X13041467Y-14361579D01*
X13041467Y-14361579D02*
X13041467Y-14371103D01*
X13041467Y-14371103D02*
X13031944Y-14390150D01*
X13031944Y-14390150D02*
X13022420Y-14399674D01*
X13022420Y-14399674D02*
X13003372Y-14409198D01*
X13003372Y-14409198D02*
X12965277Y-14409198D01*
X12965277Y-14409198D02*
X12946229Y-14418722D01*
X12946229Y-14418722D02*
X12936706Y-14428246D01*
X12936706Y-14428246D02*
X12927182Y-14447293D01*
X12927182Y-14447293D02*
X12927182Y-14485388D01*
X12927182Y-14485388D02*
X12936706Y-14504436D01*
X12936706Y-14504436D02*
X12946229Y-14513960D01*
X12946229Y-14513960D02*
X12965277Y-14523484D01*
X12965277Y-14523484D02*
X13003372Y-14523484D01*
X13003372Y-14523484D02*
X13022420Y-14513960D01*
X13022420Y-14513960D02*
X13031944Y-14504436D01*
X13031944Y-14504436D02*
X13041467Y-14485388D01*
X13041467Y-14485388D02*
X13041467Y-14447293D01*
X13041467Y-14447293D02*
X13031944Y-14428246D01*
X13031944Y-14428246D02*
X13022420Y-14418722D01*
X13022420Y-14418722D02*
X13003372Y-14409198D01*
X13231944Y-14523484D02*
X13117658Y-14523484D01*
X13174801Y-14523484D02*
X13174801Y-14323484D01*
X13174801Y-14323484D02*
X13155753Y-14352055D01*
X13155753Y-14352055D02*
X13136706Y-14371103D01*
X13136706Y-14371103D02*
X13117658Y-14380627D01*
X13308134Y-14323484D02*
X13308134Y-14361579D01*
X13384325Y-14323484D02*
X13384325Y-14361579D01*
X13679563Y-14599674D02*
X13670039Y-14590150D01*
X13670039Y-14590150D02*
X13650991Y-14561579D01*
X13650991Y-14561579D02*
X13641468Y-14542531D01*
X13641468Y-14542531D02*
X13631944Y-14513960D01*
X13631944Y-14513960D02*
X13622420Y-14466341D01*
X13622420Y-14466341D02*
X13622420Y-14428246D01*
X13622420Y-14428246D02*
X13631944Y-14380627D01*
X13631944Y-14380627D02*
X13641468Y-14352055D01*
X13641468Y-14352055D02*
X13650991Y-14333008D01*
X13650991Y-14333008D02*
X13670039Y-14304436D01*
X13670039Y-14304436D02*
X13679563Y-14294912D01*
X13841468Y-14390150D02*
X13841468Y-14523484D01*
X13793848Y-14313960D02*
X13746229Y-14456817D01*
X13746229Y-14456817D02*
X13870039Y-14456817D01*
X14098610Y-14523484D02*
X14098610Y-14323484D01*
X14184325Y-14523484D02*
X14184325Y-14418722D01*
X14184325Y-14418722D02*
X14174801Y-14399674D01*
X14174801Y-14399674D02*
X14155753Y-14390150D01*
X14155753Y-14390150D02*
X14127182Y-14390150D01*
X14127182Y-14390150D02*
X14108134Y-14399674D01*
X14108134Y-14399674D02*
X14098610Y-14409198D01*
X14308134Y-14523484D02*
X14289087Y-14513960D01*
X14289087Y-14513960D02*
X14279563Y-14504436D01*
X14279563Y-14504436D02*
X14270039Y-14485388D01*
X14270039Y-14485388D02*
X14270039Y-14428246D01*
X14270039Y-14428246D02*
X14279563Y-14409198D01*
X14279563Y-14409198D02*
X14289087Y-14399674D01*
X14289087Y-14399674D02*
X14308134Y-14390150D01*
X14308134Y-14390150D02*
X14336706Y-14390150D01*
X14336706Y-14390150D02*
X14355753Y-14399674D01*
X14355753Y-14399674D02*
X14365277Y-14409198D01*
X14365277Y-14409198D02*
X14374801Y-14428246D01*
X14374801Y-14428246D02*
X14374801Y-14485388D01*
X14374801Y-14485388D02*
X14365277Y-14504436D01*
X14365277Y-14504436D02*
X14355753Y-14513960D01*
X14355753Y-14513960D02*
X14336706Y-14523484D01*
X14336706Y-14523484D02*
X14308134Y-14523484D01*
X14489087Y-14523484D02*
X14470039Y-14513960D01*
X14470039Y-14513960D02*
X14460515Y-14494912D01*
X14460515Y-14494912D02*
X14460515Y-14323484D01*
X14641468Y-14513960D02*
X14622420Y-14523484D01*
X14622420Y-14523484D02*
X14584325Y-14523484D01*
X14584325Y-14523484D02*
X14565277Y-14513960D01*
X14565277Y-14513960D02*
X14555753Y-14494912D01*
X14555753Y-14494912D02*
X14555753Y-14418722D01*
X14555753Y-14418722D02*
X14565277Y-14399674D01*
X14565277Y-14399674D02*
X14584325Y-14390150D01*
X14584325Y-14390150D02*
X14622420Y-14390150D01*
X14622420Y-14390150D02*
X14641468Y-14399674D01*
X14641468Y-14399674D02*
X14650991Y-14418722D01*
X14650991Y-14418722D02*
X14650991Y-14437769D01*
X14650991Y-14437769D02*
X14555753Y-14456817D01*
X14727182Y-14513960D02*
X14746230Y-14523484D01*
X14746230Y-14523484D02*
X14784325Y-14523484D01*
X14784325Y-14523484D02*
X14803372Y-14513960D01*
X14803372Y-14513960D02*
X14812896Y-14494912D01*
X14812896Y-14494912D02*
X14812896Y-14485388D01*
X14812896Y-14485388D02*
X14803372Y-14466341D01*
X14803372Y-14466341D02*
X14784325Y-14456817D01*
X14784325Y-14456817D02*
X14755753Y-14456817D01*
X14755753Y-14456817D02*
X14736706Y-14447293D01*
X14736706Y-14447293D02*
X14727182Y-14428246D01*
X14727182Y-14428246D02*
X14727182Y-14418722D01*
X14727182Y-14418722D02*
X14736706Y-14399674D01*
X14736706Y-14399674D02*
X14755753Y-14390150D01*
X14755753Y-14390150D02*
X14784325Y-14390150D01*
X14784325Y-14390150D02*
X14803372Y-14399674D01*
X14879563Y-14599674D02*
X14889087Y-14590150D01*
X14889087Y-14590150D02*
X14908134Y-14561579D01*
X14908134Y-14561579D02*
X14917658Y-14542531D01*
X14917658Y-14542531D02*
X14927182Y-14513960D01*
X14927182Y-14513960D02*
X14936706Y-14466341D01*
X14936706Y-14466341D02*
X14936706Y-14428246D01*
X14936706Y-14428246D02*
X14927182Y-14380627D01*
X14927182Y-14380627D02*
X14917658Y-14352055D01*
X14917658Y-14352055D02*
X14908134Y-14333008D01*
X14908134Y-14333008D02*
X14889087Y-14304436D01*
X14889087Y-14304436D02*
X14879563Y-14294912D01*
X15241468Y-14599674D02*
X15231944Y-14590150D01*
X15231944Y-14590150D02*
X15212896Y-14561579D01*
X15212896Y-14561579D02*
X15203372Y-14542531D01*
X15203372Y-14542531D02*
X15193849Y-14513960D01*
X15193849Y-14513960D02*
X15184325Y-14466341D01*
X15184325Y-14466341D02*
X15184325Y-14428246D01*
X15184325Y-14428246D02*
X15193849Y-14380627D01*
X15193849Y-14380627D02*
X15203372Y-14352055D01*
X15203372Y-14352055D02*
X15212896Y-14333008D01*
X15212896Y-14333008D02*
X15231944Y-14304436D01*
X15231944Y-14304436D02*
X15241468Y-14294912D01*
X15317658Y-14390150D02*
X15317658Y-14523484D01*
X15317658Y-14409198D02*
X15327182Y-14399674D01*
X15327182Y-14399674D02*
X15346230Y-14390150D01*
X15346230Y-14390150D02*
X15374801Y-14390150D01*
X15374801Y-14390150D02*
X15393849Y-14399674D01*
X15393849Y-14399674D02*
X15403372Y-14418722D01*
X15403372Y-14418722D02*
X15403372Y-14523484D01*
X15527182Y-14523484D02*
X15508134Y-14513960D01*
X15508134Y-14513960D02*
X15498611Y-14504436D01*
X15498611Y-14504436D02*
X15489087Y-14485388D01*
X15489087Y-14485388D02*
X15489087Y-14428246D01*
X15489087Y-14428246D02*
X15498611Y-14409198D01*
X15498611Y-14409198D02*
X15508134Y-14399674D01*
X15508134Y-14399674D02*
X15527182Y-14390150D01*
X15527182Y-14390150D02*
X15555753Y-14390150D01*
X15555753Y-14390150D02*
X15574801Y-14399674D01*
X15574801Y-14399674D02*
X15584325Y-14409198D01*
X15584325Y-14409198D02*
X15593849Y-14428246D01*
X15593849Y-14428246D02*
X15593849Y-14485388D01*
X15593849Y-14485388D02*
X15584325Y-14504436D01*
X15584325Y-14504436D02*
X15574801Y-14513960D01*
X15574801Y-14513960D02*
X15555753Y-14523484D01*
X15555753Y-14523484D02*
X15527182Y-14523484D01*
X15650992Y-14390150D02*
X15727182Y-14390150D01*
X15679563Y-14323484D02*
X15679563Y-14494912D01*
X15679563Y-14494912D02*
X15689087Y-14513960D01*
X15689087Y-14513960D02*
X15708134Y-14523484D01*
X15708134Y-14523484D02*
X15727182Y-14523484D01*
X15946230Y-14390150D02*
X15946230Y-14590150D01*
X15946230Y-14399674D02*
X15965277Y-14390150D01*
X15965277Y-14390150D02*
X16003373Y-14390150D01*
X16003373Y-14390150D02*
X16022420Y-14399674D01*
X16022420Y-14399674D02*
X16031944Y-14409198D01*
X16031944Y-14409198D02*
X16041468Y-14428246D01*
X16041468Y-14428246D02*
X16041468Y-14485388D01*
X16041468Y-14485388D02*
X16031944Y-14504436D01*
X16031944Y-14504436D02*
X16022420Y-14513960D01*
X16022420Y-14513960D02*
X16003373Y-14523484D01*
X16003373Y-14523484D02*
X15965277Y-14523484D01*
X15965277Y-14523484D02*
X15946230Y-14513960D01*
X16155753Y-14523484D02*
X16136706Y-14513960D01*
X16136706Y-14513960D02*
X16127182Y-14494912D01*
X16127182Y-14494912D02*
X16127182Y-14323484D01*
X16317658Y-14523484D02*
X16317658Y-14418722D01*
X16317658Y-14418722D02*
X16308134Y-14399674D01*
X16308134Y-14399674D02*
X16289087Y-14390150D01*
X16289087Y-14390150D02*
X16250992Y-14390150D01*
X16250992Y-14390150D02*
X16231944Y-14399674D01*
X16317658Y-14513960D02*
X16298611Y-14523484D01*
X16298611Y-14523484D02*
X16250992Y-14523484D01*
X16250992Y-14523484D02*
X16231944Y-14513960D01*
X16231944Y-14513960D02*
X16222420Y-14494912D01*
X16222420Y-14494912D02*
X16222420Y-14475865D01*
X16222420Y-14475865D02*
X16231944Y-14456817D01*
X16231944Y-14456817D02*
X16250992Y-14447293D01*
X16250992Y-14447293D02*
X16298611Y-14447293D01*
X16298611Y-14447293D02*
X16317658Y-14437769D01*
X16384325Y-14390150D02*
X16460515Y-14390150D01*
X16412896Y-14323484D02*
X16412896Y-14494912D01*
X16412896Y-14494912D02*
X16422420Y-14513960D01*
X16422420Y-14513960D02*
X16441468Y-14523484D01*
X16441468Y-14523484D02*
X16460515Y-14523484D01*
X16603373Y-14513960D02*
X16584325Y-14523484D01*
X16584325Y-14523484D02*
X16546230Y-14523484D01*
X16546230Y-14523484D02*
X16527182Y-14513960D01*
X16527182Y-14513960D02*
X16517658Y-14494912D01*
X16517658Y-14494912D02*
X16517658Y-14418722D01*
X16517658Y-14418722D02*
X16527182Y-14399674D01*
X16527182Y-14399674D02*
X16546230Y-14390150D01*
X16546230Y-14390150D02*
X16584325Y-14390150D01*
X16584325Y-14390150D02*
X16603373Y-14399674D01*
X16603373Y-14399674D02*
X16612896Y-14418722D01*
X16612896Y-14418722D02*
X16612896Y-14437769D01*
X16612896Y-14437769D02*
X16517658Y-14456817D01*
X16784325Y-14523484D02*
X16784325Y-14323484D01*
X16784325Y-14513960D02*
X16765277Y-14523484D01*
X16765277Y-14523484D02*
X16727182Y-14523484D01*
X16727182Y-14523484D02*
X16708134Y-14513960D01*
X16708134Y-14513960D02*
X16698611Y-14504436D01*
X16698611Y-14504436D02*
X16689087Y-14485388D01*
X16689087Y-14485388D02*
X16689087Y-14428246D01*
X16689087Y-14428246D02*
X16698611Y-14409198D01*
X16698611Y-14409198D02*
X16708134Y-14399674D01*
X16708134Y-14399674D02*
X16727182Y-14390150D01*
X16727182Y-14390150D02*
X16765277Y-14390150D01*
X16765277Y-14390150D02*
X16784325Y-14399674D01*
X16860516Y-14599674D02*
X16870039Y-14590150D01*
X16870039Y-14590150D02*
X16889087Y-14561579D01*
X16889087Y-14561579D02*
X16898611Y-14542531D01*
X16898611Y-14542531D02*
X16908135Y-14513960D01*
X16908135Y-14513960D02*
X16917658Y-14466341D01*
X16917658Y-14466341D02*
X16917658Y-14428246D01*
X16917658Y-14428246D02*
X16908135Y-14380627D01*
X16908135Y-14380627D02*
X16898611Y-14352055D01*
X16898611Y-14352055D02*
X16889087Y-14333008D01*
X16889087Y-14333008D02*
X16870039Y-14304436D01*
X16870039Y-14304436D02*
X16860516Y-14294912D01*
M02*
