%TF.GenerationSoftware,KiCad,Pcbnew,8.0.6*%
%TF.CreationDate,2026-05-29T23:41:27-07:00*%
%TF.ProjectId,BottomPCB,426f7474-6f6d-4504-9342-2e6b69636164,rev?*%
%TF.SameCoordinates,Original*%
%TF.FileFunction,Legend,Bot*%
%TF.FilePolarity,Positive*%
%FSLAX46Y46*%
G04 Gerber Fmt 4.6, Leading zero omitted, Abs format (unit mm)*
G04 Created by KiCad (PCBNEW 8.0.6) date 2026-05-29 23:41:27*
%MOMM*%
%LPD*%
G01*
G04 APERTURE LIST*
%ADD10C,0.150000*%
%ADD11C,0.120000*%
%ADD12C,3.000000*%
%ADD13R,1.700000X1.700000*%
%ADD14O,1.700000X1.700000*%
G04 APERTURE END LIST*
D10*
X117623333Y-71989819D02*
X117956666Y-71513628D01*
X118194761Y-71989819D02*
X118194761Y-70989819D01*
X118194761Y-70989819D02*
X117813809Y-70989819D01*
X117813809Y-70989819D02*
X117718571Y-71037438D01*
X117718571Y-71037438D02*
X117670952Y-71085057D01*
X117670952Y-71085057D02*
X117623333Y-71180295D01*
X117623333Y-71180295D02*
X117623333Y-71323152D01*
X117623333Y-71323152D02*
X117670952Y-71418390D01*
X117670952Y-71418390D02*
X117718571Y-71466009D01*
X117718571Y-71466009D02*
X117813809Y-71513628D01*
X117813809Y-71513628D02*
X118194761Y-71513628D01*
X117194761Y-71466009D02*
X116861428Y-71466009D01*
X116718571Y-71989819D02*
X117194761Y-71989819D01*
X117194761Y-71989819D02*
X117194761Y-70989819D01*
X117194761Y-70989819D02*
X116718571Y-70989819D01*
X115956666Y-71466009D02*
X116289999Y-71466009D01*
X116289999Y-71989819D02*
X116289999Y-70989819D01*
X116289999Y-70989819D02*
X115813809Y-70989819D01*
X115289999Y-70989819D02*
X115289999Y-71227914D01*
X115528094Y-71132676D02*
X115289999Y-71227914D01*
X115289999Y-71227914D02*
X115051904Y-71132676D01*
X115432856Y-71418390D02*
X115289999Y-71227914D01*
X115289999Y-71227914D02*
X115147142Y-71418390D01*
X114528094Y-70989819D02*
X114528094Y-71227914D01*
X114766189Y-71132676D02*
X114528094Y-71227914D01*
X114528094Y-71227914D02*
X114289999Y-71132676D01*
X114670951Y-71418390D02*
X114528094Y-71227914D01*
X114528094Y-71227914D02*
X114385237Y-71418390D01*
X154473333Y-126589819D02*
X154806666Y-126113628D01*
X155044761Y-126589819D02*
X155044761Y-125589819D01*
X155044761Y-125589819D02*
X154663809Y-125589819D01*
X154663809Y-125589819D02*
X154568571Y-125637438D01*
X154568571Y-125637438D02*
X154520952Y-125685057D01*
X154520952Y-125685057D02*
X154473333Y-125780295D01*
X154473333Y-125780295D02*
X154473333Y-125923152D01*
X154473333Y-125923152D02*
X154520952Y-126018390D01*
X154520952Y-126018390D02*
X154568571Y-126066009D01*
X154568571Y-126066009D02*
X154663809Y-126113628D01*
X154663809Y-126113628D02*
X155044761Y-126113628D01*
X154044761Y-126066009D02*
X153711428Y-126066009D01*
X153568571Y-126589819D02*
X154044761Y-126589819D01*
X154044761Y-126589819D02*
X154044761Y-125589819D01*
X154044761Y-125589819D02*
X153568571Y-125589819D01*
X152806666Y-126066009D02*
X153139999Y-126066009D01*
X153139999Y-126589819D02*
X153139999Y-125589819D01*
X153139999Y-125589819D02*
X152663809Y-125589819D01*
X152139999Y-125589819D02*
X152139999Y-125827914D01*
X152378094Y-125732676D02*
X152139999Y-125827914D01*
X152139999Y-125827914D02*
X151901904Y-125732676D01*
X152282856Y-126018390D02*
X152139999Y-125827914D01*
X152139999Y-125827914D02*
X151997142Y-126018390D01*
X151378094Y-125589819D02*
X151378094Y-125827914D01*
X151616189Y-125732676D02*
X151378094Y-125827914D01*
X151378094Y-125827914D02*
X151139999Y-125732676D01*
X151520951Y-126018390D02*
X151378094Y-125827914D01*
X151378094Y-125827914D02*
X151235237Y-126018390D01*
X148123333Y-126589819D02*
X148456666Y-126113628D01*
X148694761Y-126589819D02*
X148694761Y-125589819D01*
X148694761Y-125589819D02*
X148313809Y-125589819D01*
X148313809Y-125589819D02*
X148218571Y-125637438D01*
X148218571Y-125637438D02*
X148170952Y-125685057D01*
X148170952Y-125685057D02*
X148123333Y-125780295D01*
X148123333Y-125780295D02*
X148123333Y-125923152D01*
X148123333Y-125923152D02*
X148170952Y-126018390D01*
X148170952Y-126018390D02*
X148218571Y-126066009D01*
X148218571Y-126066009D02*
X148313809Y-126113628D01*
X148313809Y-126113628D02*
X148694761Y-126113628D01*
X147694761Y-126066009D02*
X147361428Y-126066009D01*
X147218571Y-126589819D02*
X147694761Y-126589819D01*
X147694761Y-126589819D02*
X147694761Y-125589819D01*
X147694761Y-125589819D02*
X147218571Y-125589819D01*
X146456666Y-126066009D02*
X146789999Y-126066009D01*
X146789999Y-126589819D02*
X146789999Y-125589819D01*
X146789999Y-125589819D02*
X146313809Y-125589819D01*
X145789999Y-125589819D02*
X145789999Y-125827914D01*
X146028094Y-125732676D02*
X145789999Y-125827914D01*
X145789999Y-125827914D02*
X145551904Y-125732676D01*
X145932856Y-126018390D02*
X145789999Y-125827914D01*
X145789999Y-125827914D02*
X145647142Y-126018390D01*
X145028094Y-125589819D02*
X145028094Y-125827914D01*
X145266189Y-125732676D02*
X145028094Y-125827914D01*
X145028094Y-125827914D02*
X144789999Y-125732676D01*
X145170951Y-126018390D02*
X145028094Y-125827914D01*
X145028094Y-125827914D02*
X144885237Y-126018390D01*
X141773333Y-126589819D02*
X142106666Y-126113628D01*
X142344761Y-126589819D02*
X142344761Y-125589819D01*
X142344761Y-125589819D02*
X141963809Y-125589819D01*
X141963809Y-125589819D02*
X141868571Y-125637438D01*
X141868571Y-125637438D02*
X141820952Y-125685057D01*
X141820952Y-125685057D02*
X141773333Y-125780295D01*
X141773333Y-125780295D02*
X141773333Y-125923152D01*
X141773333Y-125923152D02*
X141820952Y-126018390D01*
X141820952Y-126018390D02*
X141868571Y-126066009D01*
X141868571Y-126066009D02*
X141963809Y-126113628D01*
X141963809Y-126113628D02*
X142344761Y-126113628D01*
X141344761Y-126066009D02*
X141011428Y-126066009D01*
X140868571Y-126589819D02*
X141344761Y-126589819D01*
X141344761Y-126589819D02*
X141344761Y-125589819D01*
X141344761Y-125589819D02*
X140868571Y-125589819D01*
X140106666Y-126066009D02*
X140439999Y-126066009D01*
X140439999Y-126589819D02*
X140439999Y-125589819D01*
X140439999Y-125589819D02*
X139963809Y-125589819D01*
X139439999Y-125589819D02*
X139439999Y-125827914D01*
X139678094Y-125732676D02*
X139439999Y-125827914D01*
X139439999Y-125827914D02*
X139201904Y-125732676D01*
X139582856Y-126018390D02*
X139439999Y-125827914D01*
X139439999Y-125827914D02*
X139297142Y-126018390D01*
X138678094Y-125589819D02*
X138678094Y-125827914D01*
X138916189Y-125732676D02*
X138678094Y-125827914D01*
X138678094Y-125827914D02*
X138439999Y-125732676D01*
X138820951Y-126018390D02*
X138678094Y-125827914D01*
X138678094Y-125827914D02*
X138535237Y-126018390D01*
X178583333Y-71989819D02*
X178916666Y-71513628D01*
X179154761Y-71989819D02*
X179154761Y-70989819D01*
X179154761Y-70989819D02*
X178773809Y-70989819D01*
X178773809Y-70989819D02*
X178678571Y-71037438D01*
X178678571Y-71037438D02*
X178630952Y-71085057D01*
X178630952Y-71085057D02*
X178583333Y-71180295D01*
X178583333Y-71180295D02*
X178583333Y-71323152D01*
X178583333Y-71323152D02*
X178630952Y-71418390D01*
X178630952Y-71418390D02*
X178678571Y-71466009D01*
X178678571Y-71466009D02*
X178773809Y-71513628D01*
X178773809Y-71513628D02*
X179154761Y-71513628D01*
X178154761Y-71466009D02*
X177821428Y-71466009D01*
X177678571Y-71989819D02*
X178154761Y-71989819D01*
X178154761Y-71989819D02*
X178154761Y-70989819D01*
X178154761Y-70989819D02*
X177678571Y-70989819D01*
X176916666Y-71466009D02*
X177249999Y-71466009D01*
X177249999Y-71989819D02*
X177249999Y-70989819D01*
X177249999Y-70989819D02*
X176773809Y-70989819D01*
X176249999Y-70989819D02*
X176249999Y-71227914D01*
X176488094Y-71132676D02*
X176249999Y-71227914D01*
X176249999Y-71227914D02*
X176011904Y-71132676D01*
X176392856Y-71418390D02*
X176249999Y-71227914D01*
X176249999Y-71227914D02*
X176107142Y-71418390D01*
X175488094Y-70989819D02*
X175488094Y-71227914D01*
X175726189Y-71132676D02*
X175488094Y-71227914D01*
X175488094Y-71227914D02*
X175249999Y-71132676D01*
X175630951Y-71418390D02*
X175488094Y-71227914D01*
X175488094Y-71227914D02*
X175345237Y-71418390D01*
D11*
%TO.C,REF\u002A\u002A*%
X113690000Y-72975000D02*
X115020000Y-72975000D01*
X113690000Y-74305000D02*
X113690000Y-72975000D01*
X113690000Y-75575000D02*
X116290000Y-75575000D01*
X113690000Y-121355000D02*
X113690000Y-75575000D01*
X113690000Y-121355000D02*
X118890000Y-121355000D01*
X116290000Y-72975000D02*
X118890000Y-72975000D01*
X116290000Y-75575000D02*
X116290000Y-72975000D01*
X118890000Y-121355000D02*
X118890000Y-72975000D01*
X151810000Y-127575000D02*
X153140000Y-127575000D01*
X151810000Y-128905000D02*
X151810000Y-127575000D01*
X151810000Y-130175000D02*
X154470000Y-130175000D01*
X151810000Y-132775000D02*
X151810000Y-130175000D01*
X151810000Y-132775000D02*
X154470000Y-132775000D01*
X154470000Y-132775000D02*
X154470000Y-130175000D01*
X145460000Y-127575000D02*
X146790000Y-127575000D01*
X145460000Y-128905000D02*
X145460000Y-127575000D01*
X145460000Y-130175000D02*
X148120000Y-130175000D01*
X145460000Y-132775000D02*
X145460000Y-130175000D01*
X145460000Y-132775000D02*
X148120000Y-132775000D01*
X148120000Y-132775000D02*
X148120000Y-130175000D01*
X139110000Y-127575000D02*
X140440000Y-127575000D01*
X139110000Y-128905000D02*
X139110000Y-127575000D01*
X139110000Y-130175000D02*
X141770000Y-130175000D01*
X139110000Y-132775000D02*
X139110000Y-130175000D01*
X139110000Y-132775000D02*
X141770000Y-132775000D01*
X141770000Y-132775000D02*
X141770000Y-130175000D01*
X174650000Y-72975000D02*
X175980000Y-72975000D01*
X174650000Y-74305000D02*
X174650000Y-72975000D01*
X174650000Y-75575000D02*
X177250000Y-75575000D01*
X174650000Y-121355000D02*
X174650000Y-75575000D01*
X174650000Y-121355000D02*
X179850000Y-121355000D01*
X177250000Y-72975000D02*
X179850000Y-72975000D01*
X177250000Y-75575000D02*
X177250000Y-72975000D01*
X179850000Y-121355000D02*
X179850000Y-72975000D01*
%TD*%
%LPC*%
D12*
%TO.C,REF\u002A\u002A*%
X106150000Y-67945000D03*
%TD*%
D13*
%TO.C,REF\u002A\u002A*%
X125200000Y-131445000D03*
D14*
X125200000Y-128905000D03*
X122660000Y-131445000D03*
X122660000Y-128905000D03*
X120120000Y-131445000D03*
X120120000Y-128905000D03*
X117580000Y-131445000D03*
X117580000Y-128905000D03*
X115040000Y-131445000D03*
X115040000Y-128905000D03*
X112500000Y-131445000D03*
X112500000Y-128905000D03*
X109960000Y-131445000D03*
X109960000Y-128905000D03*
X107420000Y-131445000D03*
X107420000Y-128905000D03*
%TD*%
D12*
%TO.C,REF\u002A\u002A*%
X187430000Y-122555000D03*
%TD*%
D13*
%TO.C,REF\u002A\u002A*%
X140465000Y-98450000D03*
D14*
X140465000Y-100990000D03*
X140465000Y-103530000D03*
X140465000Y-106070000D03*
X140465000Y-108610000D03*
X140465000Y-111150000D03*
%TD*%
D13*
%TO.C,REF\u002A\u002A*%
X148060000Y-67945000D03*
D14*
X145520000Y-67945000D03*
X148060000Y-70485000D03*
X145520000Y-70485000D03*
X148060000Y-73025000D03*
X145520000Y-73025000D03*
X148060000Y-75565000D03*
X145520000Y-75565000D03*
X148060000Y-78105000D03*
X145520000Y-78105000D03*
X148060000Y-80645000D03*
X145520000Y-80645000D03*
X148060000Y-83185000D03*
X145520000Y-83185000D03*
X148060000Y-85725000D03*
X145520000Y-85725000D03*
%TD*%
D12*
%TO.C,REF\u002A\u002A*%
X106150000Y-122555000D03*
%TD*%
D13*
%TO.C,REF\u002A\u002A*%
X168380000Y-128885000D03*
D14*
X168380000Y-131425000D03*
X170920000Y-128885000D03*
X170920000Y-131425000D03*
X173460000Y-128885000D03*
X173460000Y-131425000D03*
X176000000Y-128885000D03*
X176000000Y-131425000D03*
X178540000Y-128885000D03*
X178540000Y-131425000D03*
X181080000Y-128885000D03*
X181080000Y-131425000D03*
X183620000Y-128885000D03*
X183620000Y-131425000D03*
X186160000Y-128885000D03*
X186160000Y-131425000D03*
%TD*%
D12*
%TO.C,REF\u002A\u002A*%
X187430000Y-67945000D03*
%TD*%
D13*
%TO.C,REF\u002A\u002A*%
X153165000Y-98450000D03*
D14*
X153165000Y-100990000D03*
X153165000Y-103530000D03*
X153165000Y-106070000D03*
X153165000Y-108610000D03*
X153165000Y-111150000D03*
%TD*%
D13*
%TO.C,REF\u002A\u002A*%
X115020000Y-74305000D03*
D14*
X117560000Y-74305000D03*
X115020000Y-76845000D03*
X117560000Y-76845000D03*
X115020000Y-79385000D03*
X117560000Y-79385000D03*
X115020000Y-81925000D03*
X117560000Y-81925000D03*
X115020000Y-84465000D03*
X117560000Y-84465000D03*
X115020000Y-87005000D03*
X117560000Y-87005000D03*
X115020000Y-89545000D03*
X117560000Y-89545000D03*
X115020000Y-92085000D03*
X117560000Y-92085000D03*
X115020000Y-94625000D03*
X117560000Y-94625000D03*
X115020000Y-97165000D03*
X117560000Y-97165000D03*
X115020000Y-99705000D03*
X117560000Y-99705000D03*
X115020000Y-102245000D03*
X117560000Y-102245000D03*
X115020000Y-104785000D03*
X117560000Y-104785000D03*
X115020000Y-107325000D03*
X117560000Y-107325000D03*
X115020000Y-109865000D03*
X117560000Y-109865000D03*
X115020000Y-112405000D03*
X117560000Y-112405000D03*
X115020000Y-114945000D03*
X117560000Y-114945000D03*
X115020000Y-117485000D03*
X117560000Y-117485000D03*
X115020000Y-120025000D03*
X117560000Y-120025000D03*
%TD*%
D13*
%TO.C,REF\u002A\u002A*%
X153140000Y-128905000D03*
D14*
X153140000Y-131445000D03*
%TD*%
D13*
%TO.C,REF\u002A\u002A*%
X146790000Y-128905000D03*
D14*
X146790000Y-131445000D03*
%TD*%
D13*
%TO.C,REF\u002A\u002A*%
X140440000Y-128905000D03*
D14*
X140440000Y-131445000D03*
%TD*%
D13*
%TO.C,REF\u002A\u002A*%
X175980000Y-74305000D03*
D14*
X178520000Y-74305000D03*
X175980000Y-76845000D03*
X178520000Y-76845000D03*
X175980000Y-79385000D03*
X178520000Y-79385000D03*
X175980000Y-81925000D03*
X178520000Y-81925000D03*
X175980000Y-84465000D03*
X178520000Y-84465000D03*
X175980000Y-87005000D03*
X178520000Y-87005000D03*
X175980000Y-89545000D03*
X178520000Y-89545000D03*
X175980000Y-92085000D03*
X178520000Y-92085000D03*
X175980000Y-94625000D03*
X178520000Y-94625000D03*
X175980000Y-97165000D03*
X178520000Y-97165000D03*
X175980000Y-99705000D03*
X178520000Y-99705000D03*
X175980000Y-102245000D03*
X178520000Y-102245000D03*
X175980000Y-104785000D03*
X178520000Y-104785000D03*
X175980000Y-107325000D03*
X178520000Y-107325000D03*
X175980000Y-109865000D03*
X178520000Y-109865000D03*
X175980000Y-112405000D03*
X178520000Y-112405000D03*
X175980000Y-114945000D03*
X178520000Y-114945000D03*
X175980000Y-117485000D03*
X178520000Y-117485000D03*
X175980000Y-120025000D03*
X178520000Y-120025000D03*
%TD*%
%LPD*%
M02*
